<?xml version="1.0" encoding="UTF-8"?>
<svg width="496px" height="496px" viewBox="0 0 496 496" version="1.1" xmlns="http://www.w3.org/2000/svg" xmlns:xlink="http://www.w3.org/1999/xlink"><g id="Artboard" stroke="none" stroke-width="1" fill="none" fill-rule="evenodd" transform="translate(-168.000000, -141.000000)"><g id="chevron-circle-right-solid" transform="translate(168.000000, 141.000000)" fill="#000000" fill-rule="nonzero"><path d="M248,0 C385,0 496,111 496,248 C496,385 385,496 248,496 C111,496 0,385 0,248 C0,111 111,0 248,0 Z M249,28 C126.915323,28 28,126.915323 28,249 C28,371.084677 126.915323,470 249,470 C371.084677,470 470,371.084677 470,249 C470,126.915323 371.084677,28 249,28 Z M320.834283,141.545959 L221.828102,241.331716 C217.959759,245.230518 217.959759,251.519482 221.828102,255.418284 L320.834283,355.204041 C324.713399,359.113701 324.701026,365.423974 320.806607,369.318393 L306.446068,383.678932 C302.540825,387.584175 296.209175,387.584175 292.303932,383.678932 L164.071068,255.446068 C160.165825,251.540825 160.165825,245.209175 164.071068,241.303932 L292.303932,113.071068 C296.209175,109.165825 302.540825,109.165825 306.446068,113.071068 L320.806607,127.431607 C324.701026,131.326026 324.713399,137.636299 320.834283,141.545959 Z" id="Combined-Shape"></path></g></g></svg>
