<?xml version="1.0" encoding="UTF-8"?>
<svg width="496px" height="496px" viewBox="0 0 496 496" version="1.1" xmlns="http://www.w3.org/2000/svg" xmlns:xlink="http://www.w3.org/1999/xlink"><g id="Artboard" stroke="none" stroke-width="1" fill="none" fill-rule="evenodd" transform="translate(-168.000000, -141.000000)"><path d="M416,141 C553,141 664,252 664,389 C664,526 553,637 416,637 C279,637 168,526 168,389 C168,252 279,141 416,141 Z M417,169 C294.915323,169 196,267.915323 196,390 C196,512.084677 294.915323,611 417,611 C539.084677,611 638,512.084677 638,390 C638,267.915323 539.084677,169 417,169 Z M347.015717,496.204041 L446.021898,396.418284 C449.890241,392.519482 449.890241,386.230518 446.021898,382.331716 L347.015717,282.545959 C343.136601,278.636299 343.148974,272.326026 347.043393,268.431607 L361.403932,254.071068 C365.309175,250.165825 371.640825,250.165825 375.546068,254.071068 L503.778932,382.303932 C507.684175,386.209175 507.684175,392.540825 503.778932,396.446068 L375.546068,524.678932 C371.640825,528.584175 365.309175,528.584175 361.403932,524.678932 L347.043393,510.318393 C343.148974,506.423974 343.136601,500.113701 347.015717,496.204041 Z" id="Combined-Shape-Copy" fill="#000000" fill-rule="nonzero"></path></g></svg>
