<?xml version="1.0" encoding="UTF-8"?>
<svg width="1280px" height="588px" viewBox="0 0 1280 588" version="1.1" xmlns="http://www.w3.org/2000/svg" xmlns:xlink="http://www.w3.org/1999/xlink">
    <!-- Generator: Sketch 48.2 (47327) - http://www.bohemiancoding.com/sketch -->
    <title>img</title>
    <desc>Created with Sketch.</desc>
    <defs>
        <rect id="path-1" x="0" y="0" width="1280" height="587.902037"></rect>
    </defs>
    <g id="Artboard-2" stroke="none" stroke-width="1" fill="none" fill-rule="evenodd" transform="translate(0.000000, -206.000000)">
        <g id="img" transform="translate(0.000000, 206.000000)">
            <g id="Clipped">
                <mask id="mask-2" fill="white">
                    <use xlink:href="#path-1"></use>
                </mask>
                <g id="SVGID_1_"></g>
                <rect id="Rectangle-path" fill="#FFFFFF" fill-rule="nonzero" mask="url(#mask-2)" x="2" y="1" width="1280" height="588"></rect>
                <polygon id="Rectangle-3" fill="#E9E9E9" mask="url(#mask-2)" points="0 -1 1280 -1 1280 102"></polygon>
                <g id="Group" mask="url(#mask-2)" fill-rule="nonzero">
                    <g transform="translate(-29.767442, 173.781355)" id="Shape">
                        <polygon fill="#A1CD4C" points="1370.55569 24.3436956 50.2913097 431.688095 1352.22521 396.919256"></polygon>
                        <polygon fill="#D2D3D4" points="1357.39535 380.815793 4.23011016 216.121292 30.5507956 337.629235"></polygon>
                        <polygon fill="#87BD40" points="1353.16524 380.449806 538.164015 281.267117 316.318237 349.706832 1353.16524 380.815793"></polygon>
                        <polygon fill="#5B595A" points="1357.39535 380.815793 18.3304774 270.653472 16.9204406 436.445936 1324.49449 415.95062"></polygon>
                        <polygon fill="#FFFFFF" opacity="0.13" points="1320.73439 142.923736 137.243574 422.172412 1337.65483 435.71396"></polygon>
                        <polygon fill="#FFFFFF" opacity="0.21" points="1338.12485 0.554489847 1036.37699 413.754694 1340.0049 429.12618"></polygon>
                        <polygon fill="#FFFFFF" opacity="0.1" points="697.498164 423.270376 0.47001224 288.952861 11.2802938 425.83229"></polygon>
                    </g>
                </g>
            </g>
        </g>
    </g>
</svg>