<?xml version="1.0" encoding="UTF-8"?>
<svg width="18px" height="18px" viewBox="0 0 18 18" version="1.1" xmlns="http://www.w3.org/2000/svg" xmlns:xlink="http://www.w3.org/1999/xlink">
    <!-- Generator: Sketch 48.2 (47327) - http://www.bohemiancoding.com/sketch -->
    <title>ion-clock - Ionicons</title>
    <desc>Created with Sketch.</desc>
    <defs>
        <rect id="path-1" x="0" y="0" width="1280" height="447"></rect>
        <filter x="-0.2%" y="-0.7%" width="100.5%" height="101.3%" filterUnits="objectBoundingBox" id="filter-2">
            <feOffset dx="0" dy="0" in="SourceAlpha" result="shadowOffsetOuter1"></feOffset>
            <feGaussianBlur stdDeviation="1" in="shadowOffsetOuter1" result="shadowBlurOuter1"></feGaussianBlur>
            <feComposite in="shadowBlurOuter1" in2="SourceAlpha" operator="out" result="shadowBlurOuter1"></feComposite>
            <feColorMatrix values="0 0 0 0 0   0 0 0 0 0   0 0 0 0 0  0 0 0 0.5 0" type="matrix" in="shadowBlurOuter1"></feColorMatrix>
        </filter>
    </defs>
    <g id="Artboard" stroke="none" stroke-width="1" fill="none" fill-rule="evenodd" transform="translate(-409.000000, -2318.000000)">
        <g id="Group-7" transform="translate(-80.000000, 116.000000)">
            <g id="Contact" transform="translate(80.000000, 1934.000000)">
                <g id="backgrond-copy">
                    <use fill="black" fill-opacity="1" filter="url(#filter-2)" xlink:href="#path-1"></use>
                    <use fill-opacity="0" fill="#F7F7F7" fill-rule="evenodd" xlink:href="#path-1"></use>
                </g>
                <g id="Group-6" transform="translate(365.000000, 66.000000)">
                    <g id="body" transform="translate(0.000000, 106.000000)">
                        <g id="info">
                            <g id="grid"></g>
                            <g id="work" transform="translate(44.000000, 96.000000)" fill="#000000">
                                <path d="M8.75,0 C11.1718871,0 13.2356686,0.852856055 14.9414062,2.55859375 C16.6471439,4.26433145 17.5,6.32811289 17.5,8.75 C17.5,11.1718871 16.6471439,13.2356686 14.9414062,14.9414062 C13.2356686,16.6471439 11.1718871,17.5 8.75,17.5 C6.32811289,17.5 4.26433145,16.6471439 2.55859375,14.9414062 C0.852856055,13.2356686 0,11.1718871 0,8.75 C0,6.32811289 0.852856055,4.26433145 2.55859375,2.55859375 C4.26433145,0.852856055 6.32811289,0 8.75,0 Z M14.0625,14.0625 C14.4791687,13.6458312 14.817707,13.216148 15.078125,12.7734375 L14.0234375,12.1484375 L14.3359375,11.6015625 L15.390625,12.2265625 C15.9375027,11.1848906 16.2239582,10.1302137 16.25,9.0625 L15,9.0625 L15,8.4375 L16.25,8.4375 C16.2239582,7.36978633 15.9375027,6.31510937 15.390625,5.2734375 L14.3359375,5.8984375 L14.0234375,5.3515625 L15.078125,4.7265625 C14.817707,4.28385195 14.4791687,3.85416875 14.0625,3.4375 C13.6458313,3.02083125 13.216148,2.68229297 12.7734375,2.421875 L12.1484375,3.4765625 L11.6015625,3.1640625 L12.2265625,2.109375 C11.1848906,1.56249727 10.1302137,1.2760418 9.0625,1.25 L9.0625,2.5 L8.4375,2.5 L8.4375,1.25 C7.36978633,1.2760418 6.31510938,1.56249727 5.2734375,2.109375 L5.8984375,3.1640625 L5.3515625,3.4765625 L4.7265625,2.421875 C4.28385195,2.68229297 3.85416875,3.02083125 3.4375,3.4375 C3.02083125,3.85416875 2.68229297,4.28385195 2.421875,4.7265625 L3.4765625,5.3515625 L3.1640625,5.8984375 L2.109375,5.2734375 C1.56249727,6.31510937 1.2760418,7.36978633 1.25,8.4375 L2.5,8.4375 L2.5,9.0625 L1.25,9.0625 C1.2760418,10.1302137 1.56249727,11.1848906 2.109375,12.2265625 L3.1640625,11.6015625 L3.4765625,12.1484375 L2.421875,12.7734375 C2.68229297,13.216148 3.02083125,13.6458312 3.4375,14.0625 C3.85416875,14.4791688 4.28385195,14.817707 4.7265625,15.078125 L5.3515625,14.0234375 L5.8984375,14.3359375 L5.2734375,15.390625 C6.31510938,15.9375027 7.36978633,16.2239582 8.4375,16.25 L8.4375,15 L9.0625,15 L9.0625,16.25 C10.1302137,16.2239582 11.1848906,15.9375027 12.2265625,15.390625 L11.6015625,14.3359375 L12.1484375,14.0234375 L12.7734375,15.078125 C13.216148,14.817707 13.6458313,14.4791688 14.0625,14.0625 Z M14.375,8.1640625 L14.375,9.4140625 L9.8046875,9.4140625 C9.54426953,9.80468945 9.19271055,10 8.75,10 C8.38541484,10 8.08593867,9.88281367 7.8515625,9.6484375 C7.61718633,9.41406133 7.5,9.11458516 7.5,8.75 C7.5,8.28124766 7.70833125,7.91666797 8.125,7.65625 L8.125,5 L9.375,5 L9.375,7.65625 C9.55729258,7.76041719 9.71354102,7.92968633 9.84375,8.1640625 L14.375,8.1640625 Z" id="ion-clock---Ionicons"></path>
                            </g>
                        </g>
                    </g>
                </g>
            </g>
        </g>
    </g>
</svg>