
<svg width="120px" height="97px" viewBox="0 0 120 97" version="1.1" xmlns="http://www.w3.org/2000/svg" xmlns:xlink="http://www.w3.org/1999/xlink">
    <g id="Tree" stroke="none" stroke-width="1" fill="none" fill-rule="evenodd" transform="translate(-748.000000, -1345.000000)">
        <path d="M807.904,1387.192 L856,1357.096 L759.808,1357.096 L807.904,1387.192 Z M856,1429.096 L856,1369.192 L807.904,1399 L759.808,1369.192 L759.808,1429.096 L856,1429.096 Z M856,1345 C859.264016,1345 862.047988,1346.19999 864.352,1348.6 C866.656012,1351.00001 867.808,1353.83198 867.808,1357.096 L867.808,1429.096 C867.808,1432.36002 866.656012,1435.19199 864.352,1437.592 C862.047988,1439.99201 859.264016,1441.192 856,1441.192 L759.808,1441.192 C756.543984,1441.192 753.760012,1439.99201 751.456,1437.592 C749.151988,1435.19199 748,1432.36002 748,1429.096 L748,1357.096 C748,1353.83198 749.151988,1351.00001 751.456,1348.6 C753.760012,1346.19999 756.543984,1345 759.808,1345 L856,1345 Z" id="mail_outline---material" fill="#FFFFFF"></path>
    </g>
</svg>
