<?xml version="1.0" encoding="UTF-8"?>
<svg width="32px" height="26px" viewBox="0 0 32 26" version="1.1" xmlns="http://www.w3.org/2000/svg" xmlns:xlink="http://www.w3.org/1999/xlink">
    <!-- Generator: Sketch 48.2 (47327) - http://www.bohemiancoding.com/sketch -->
    <title>mail_outline - material</title>
    <desc>Created with Sketch.</desc>
    <defs></defs>
    <g id="Artboard-2" stroke="none" stroke-width="1" fill="none" fill-rule="evenodd" transform="translate(-621.000000, -155.000000)">
        <path d="M636.627904,166.007154 L649.175308,158.155635 L624.0805,158.155635 L636.627904,166.007154 Z M649.175308,176.939173 L649.175308,161.311269 L636.627904,169.087654 L624.0805,161.311269 L624.0805,176.939173 L649.175308,176.939173 Z M649.175308,155 C650.026833,155 650.753122,155.313056 651.354199,155.939177 C651.955275,156.565298 652.255808,157.30411 652.255808,158.155635 L652.255808,176.939173 C652.255808,177.790698 651.955275,178.52951 651.354199,179.155631 C650.753122,179.781752 650.026833,180.094808 649.175308,180.094808 L624.0805,180.094808 C623.228976,180.094808 622.502686,179.781752 621.90161,179.155631 C621.300534,178.52951 621,177.790698 621,176.939173 L621,158.155635 C621,157.30411 621.300534,156.565298 621.90161,155.939177 C622.502686,155.313056 623.228976,155 624.0805,155 L649.175308,155 Z" id="mail_outline---material" fill="#FFFFFF"></path>
    </g>
</svg>