<?xml version="1.0" encoding="UTF-8"?>
<svg width="1057px" height="147px" viewBox="0 0 1057 147" version="1.1" xmlns="http://www.w3.org/2000/svg" xmlns:xlink="http://www.w3.org/1999/xlink">
    <!-- Generator: Sketch 48.2 (47327) - http://www.bohemiancoding.com/sketch -->
    <title>home logo</title>
    <desc>Created with Sketch.</desc>
    <defs>
        <linearGradient x1="100%" y1="50%" x2="0%" y2="50%" id="linearGradient-1">
            <stop stop-color="#ADD200" offset="0%"></stop>
            <stop stop-color="#ADD200" offset="49.5826014%"></stop>
            <stop stop-color="#555555" offset="50.1099778%"></stop>
            <stop stop-color="#555555" offset="52.2301512%"></stop>
            <stop stop-color="#555555" offset="100%"></stop>
        </linearGradient>
        <linearGradient x1="0%" y1="0%" x2="100%" y2="0%" id="linearGradient-2">
            <stop stop-color="#555555" offset="0%"></stop>
            <stop stop-color="#555555" offset="49.7644554%"></stop>
            <stop stop-color="#ADD200" offset="49.7908134%"></stop>
            <stop stop-color="#ADD200" offset="100%"></stop>
        </linearGradient>
    </defs>
    <g id="Tree" stroke="none" stroke-width="1" fill="none" fill-rule="evenodd" transform="translate(-141.000000, -213.000000)">
        <path d="M145.495157,220.710938 L165.534219,220.710938 L195.206094,308.039062 L224.667032,220.710938 L244.495157,220.710938 L244.495157,324 L231.206094,324 L231.206094,263.039062 C231.206094,260.929677 231.252969,257.437524 231.346719,252.5625 C231.44047,247.687476 231.487344,242.460965 231.487344,236.882812 L202.026407,324 L188.174844,324 L158.502969,236.882812 L158.502969,240.046875 C158.502969,242.578138 158.561562,246.433568 158.678751,251.613281 C158.795939,256.792995 158.854532,260.60155 158.854532,263.039062 L158.854532,324 L145.495157,324 L145.495157,220.710938 Z M355.384091,235.476562 C362.227876,244.617233 365.649716,256.312429 365.649716,270.5625 C365.649716,285.984452 361.735693,298.804636 353.907529,309.023438 C344.719983,321.023498 331.618551,327.023438 314.602841,327.023438 C298.712137,327.023438 286.220074,321.77349 277.126279,311.273438 C269.016863,301.148387 264.962216,288.35164 264.962216,272.882812 C264.962216,258.913993 268.430932,246.960987 275.368466,237.023438 C284.274761,224.273374 297.446504,217.898438 314.884091,217.898438 C333.118558,217.898438 346.618423,223.757754 355.384091,235.476562 Z M343.044248,301.253906 C348.552088,292.417925 351.305966,282.25787 351.305966,270.773438 C351.305966,258.632752 348.130217,248.859412 341.778623,241.453125 C335.427028,234.046838 326.743521,230.34375 315.727841,230.34375 C305.040288,230.34375 296.321625,234.011682 289.571591,241.347656 C282.821558,248.68363 279.446591,259.499929 279.446591,273.796875 C279.446591,285.234432 282.341094,294.878867 288.130185,302.730469 C293.919277,310.582071 303.305901,314.507812 316.290341,314.507812 C328.618528,314.507812 337.536408,310.089888 343.044248,301.253906 Z M394.976151,220.710938 L424.648026,308.671875 L453.968338,220.710938 L469.648026,220.710938 L431.960526,324 L417.124588,324 L379.507401,220.710938 L394.976151,220.710938 Z M490.536961,220.710938 L504.669773,220.710938 L504.669773,324 L490.536961,324 L490.536961,220.710938 Z M533.22277,220.710938 L608.527458,220.710938 L608.527458,233.367188 L546.863395,233.367188 L546.863395,264.726562 L603.886833,264.726562 L603.886833,276.679688 L546.863395,276.679688 L546.863395,311.695312 L609.582145,311.695312 L609.582145,324 L533.22277,324 L533.22277,220.710938 Z M630,266 L668,266 L668,276 L630,276 L630,266 Z M691.289702,220.710938 L737.766264,220.710938 C746.95381,220.710938 754.359986,223.300755 759.985014,228.480469 C765.610043,233.660182 768.422514,240.937453 768.422514,250.3125 C768.422514,258.37504 765.914727,265.394501 760.899077,271.371094 C755.883427,277.347686 748.172566,280.335938 737.766264,280.335938 L705.281889,280.335938 L705.281889,324 L691.289702,324 L691.289702,220.710938 Z M745.852202,234.914062 C742.758436,233.46093 738.516291,232.734375 733.125639,232.734375 L705.281889,232.734375 L705.281889,268.523438 L733.125639,268.523438 C739.406921,268.523438 744.504526,267.187513 748.418608,264.515625 C752.33269,261.843737 754.289702,257.132846 754.289702,250.382812 C754.289702,242.789025 751.47723,237.632826 745.852202,234.914062 Z M790.858324,220.710938 L804.991137,220.710938 L804.991137,263.390625 L858.709887,263.390625 L858.709887,220.710938 L872.842699,220.710938 L872.842699,324 L858.709887,324 L858.709887,275.695312 L804.991137,275.695312 L804.991137,324 L790.858324,324 L790.858324,220.710938 Z M984.083196,235.476562 C990.92698,244.617233 994.348821,256.312429 994.348821,270.5625 C994.348821,285.984452 990.434798,298.804636 982.606634,309.023438 C973.419088,321.023498 960.317656,327.023438 943.301946,327.023438 C927.411242,327.023438 914.919179,321.77349 905.825384,311.273438 C897.715968,301.148387 893.661321,288.35164 893.661321,272.882812 C893.661321,258.913993 897.130036,246.960987 904.067571,237.023438 C912.973866,224.273374 926.145609,217.898438 943.583196,217.898438 C961.817662,217.898438 975.317527,223.757754 984.083196,235.476562 Z M971.743352,301.253906 C977.251192,292.417925 980.005071,282.25787 980.005071,270.773438 C980.005071,258.632752 976.829322,248.859412 970.477727,241.453125 C964.126133,234.046838 955.442626,230.34375 944.426946,230.34375 C933.739393,230.34375 925.02073,234.011682 918.270696,241.347656 C911.520662,248.68363 908.145696,259.499929 908.145696,273.796875 C908.145696,285.234432 911.040198,294.878867 916.82929,302.730469 C922.618381,310.582071 932.005006,314.507812 944.989446,314.507812 C957.317633,314.507812 966.235512,310.089888 971.743352,301.253906 Z M1090.68307,220.710938 L1090.68307,233.015625 L1055.87838,233.015625 L1055.87838,324 L1041.67526,324 L1041.67526,233.015625 L1006.87057,233.015625 L1006.87057,220.710938 L1090.68307,220.710938 Z M1190.53294,235.476562 C1197.37672,244.617233 1200.79857,256.312429 1200.79857,270.5625 C1200.79857,285.984452 1196.88454,298.804636 1189.05638,309.023438 C1179.86883,321.023498 1166.7674,327.023438 1149.75169,327.023438 C1133.86099,327.023438 1121.36892,321.77349 1112.27513,311.273438 C1104.16571,301.148387 1100.11107,288.35164 1100.11107,272.882812 C1100.11107,258.913993 1103.57978,246.960987 1110.51732,237.023438 C1119.42361,224.273374 1132.59535,217.898438 1150.03294,217.898438 C1168.26741,217.898438 1181.76727,223.757754 1190.53294,235.476562 Z M1178.1931,301.253906 C1183.70094,292.417925 1186.45482,282.25787 1186.45482,270.773438 C1186.45482,258.632752 1183.27907,248.859412 1176.92747,241.453125 C1170.57588,234.046838 1161.89237,230.34375 1150.87669,230.34375 C1140.18914,230.34375 1131.47047,234.011682 1124.72044,241.347656 C1117.97041,248.68363 1114.59544,259.499929 1114.59544,273.796875 C1114.59544,285.234432 1117.48994,294.878867 1123.27903,302.730469 C1129.06813,310.582071 1138.45475,314.507812 1151.43919,314.507812 C1163.76738,314.507812 1172.68526,310.089888 1178.1931,301.253906 Z" id="MOVIE/PHOTO" fill="url(#linearGradient-1)" opacity="0.99000001"></path>
        <g id="home-logo" transform="translate(138.000000, 204.000000)">
            <path d="M8,151 L1055,151" id="Line-2" stroke="url(#linearGradient-2)" stroke-width="10" stroke-linecap="square"></path>
            <g id="right-ellipse" transform="translate(0.000000, 4.000000)">
                <g id="small-eye" transform="translate(0.000000, 96.000000)">
                    <g id="Group-3-Copy-12" transform="translate(5.000000, 5.000000)">
                        <circle id="Oval-7-Copy" fill="#555555" cx="9.5" cy="9.5" r="9.5"></circle>
                        <circle id="Oval-8-Copy" fill="#FFFFFF" cx="9.5" cy="9.5" r="3.5"></circle>
                    </g>
                </g>
                <g id="small-eye" transform="translate(2.000000, 0.000000)">
                    <g id="Group-3-Copy-12" transform="translate(5.000000, 5.000000)">
                        <circle id="Oval-7-Copy" fill="#555555" cx="9.5" cy="9.5" r="9.5"></circle>
                        <circle id="Oval-8-Copy" fill="#FFFFFF" cx="9.5" cy="9.5" r="3.5"></circle>
                    </g>
                </g>
                <g id="small-eye" transform="translate(43.000000, 96.000000)">
                    <g id="Group-3-Copy-12" transform="translate(5.000000, 5.000000)">
                        <circle id="Oval-7-Copy" fill="#555555" cx="9.5" cy="9.5" r="9.5"></circle>
                        <circle id="Oval-8-Copy" fill="#FFFFFF" cx="9.5" cy="9.5" r="3.5"></circle>
                    </g>
                </g>
                <g id="small-eye" transform="translate(86.000000, 96.000000)">
                    <g id="Group-3-Copy-12" transform="translate(5.000000, 5.000000)">
                        <circle id="Oval-7-Copy" fill="#555555" cx="9.5" cy="9.5" r="9.5"></circle>
                        <circle id="Oval-8-Copy" fill="#FFFFFF" cx="9.5" cy="9.5" r="3.5"></circle>
                    </g>
                </g>
                <g id="small-eye" transform="translate(83.000000, 0.000000)">
                    <g id="Group-3-Copy-12" transform="translate(5.000000, 5.000000)">
                        <circle id="Oval-7-Copy" fill="#555555" cx="9.5" cy="9.5" r="9.5"></circle>
                        <circle id="Oval-8-Copy" fill="#FFFFFF" cx="9.5" cy="9.5" r="3.5"></circle>
                    </g>
                </g>
                <g id="small-eye" transform="translate(236.000000, 4.000000)">
                    <g id="Group-3-Copy-12" transform="translate(5.000000, 5.000000)">
                        <circle id="Oval-7-Copy" fill="#555555" cx="9.5" cy="9.5" r="9.5"></circle>
                        <circle id="Oval-8-Copy" fill="#FFFFFF" cx="9.5" cy="9.5" r="3.5"></circle>
                    </g>
                </g>
                <g id="small-eye" transform="translate(272.000000, 96.000000)">
                    <g id="Group-3-Copy-12" transform="translate(5.000000, 5.000000)">
                        <circle id="Oval-7-Copy" fill="#555555" cx="9.5" cy="9.5" r="9.5"></circle>
                        <circle id="Oval-8-Copy" fill="#FFFFFF" cx="9.5" cy="9.5" r="3.5"></circle>
                    </g>
                </g>
                <g id="small-eye" transform="translate(308.000000, 4.000000)">
                    <g id="Group-3-Copy-12" transform="translate(5.000000, 5.000000)">
                        <circle id="Oval-7-Copy" fill="#555555" cx="9.5" cy="9.5" r="9.5"></circle>
                        <circle id="Oval-8-Copy" fill="#FFFFFF" cx="9.5" cy="9.5" r="3.5"></circle>
                    </g>
                </g>
                <g id="small-eye" transform="translate(345.000000, 4.000000)">
                    <g id="Group-3-Copy-12" transform="translate(5.000000, 5.000000)">
                        <circle id="Oval-7-Copy" fill="#555555" cx="9.5" cy="9.5" r="9.5"></circle>
                        <circle id="Oval-8-Copy" fill="#FFFFFF" cx="9.5" cy="9.5" r="3.5"></circle>
                    </g>
                </g>
                <g id="small-eye" transform="translate(452.000000, 4.000000)">
                    <g id="Group-3-Copy-12" transform="translate(5.000000, 5.000000)">
                        <circle id="Oval-7-Copy" fill="#555555" cx="9.5" cy="9.5" r="9.5"></circle>
                        <circle id="Oval-8-Copy" fill="#FFFFFF" cx="9.5" cy="9.5" r="3.5"></circle>
                    </g>
                </g>
                <g id="small-eye" transform="translate(448.000000, 48.000000)">
                    <g id="Group-3-Copy-12" transform="translate(5.000000, 5.000000)">
                        <circle id="Oval-7-Copy" fill="#555555" cx="9.5" cy="9.5" r="9.5"></circle>
                        <circle id="Oval-8-Copy" fill="#FFFFFF" cx="9.5" cy="9.5" r="3.5"></circle>
                    </g>
                </g>
                <g id="small-eye" transform="translate(452.000000, 95.000000)">
                    <g id="Group-3-Copy-12" transform="translate(5.000000, 5.000000)">
                        <circle id="Oval-7-Copy" fill="#555555" cx="9.5" cy="9.5" r="9.5"></circle>
                        <circle id="Oval-8-Copy" fill="#FFFFFF" cx="9.5" cy="9.5" r="3.5"></circle>
                    </g>
                </g>
                <g id="small-eye" transform="translate(389.000000, 4.000000)">
                    <g id="Group-3-Copy-12" transform="translate(5.000000, 5.000000)">
                        <circle id="Oval-7-Copy" fill="#555555" cx="9.5" cy="9.5" r="9.5"></circle>
                        <circle id="Oval-8-Copy" fill="#FFFFFF" cx="9.5" cy="9.5" r="3.5"></circle>
                    </g>
                </g>
                <g id="small-eye" transform="translate(389.000000, 95.000000)">
                    <g id="Group-3-Copy-12" transform="translate(5.000000, 5.000000)">
                        <circle id="Oval-7-Copy" fill="#555555" cx="9.5" cy="9.5" r="9.5"></circle>
                        <circle id="Oval-8-Copy" fill="#FFFFFF" cx="9.5" cy="9.5" r="3.5"></circle>
                    </g>
                </g>
                <g id="small-eye" transform="translate(345.000000, 96.000000)">
                    <g id="Group-3-Copy-12" transform="translate(5.000000, 5.000000)">
                        <circle id="Oval-7-Copy" fill="#555555" cx="9.5" cy="9.5" r="9.5"></circle>
                        <circle id="Oval-8-Copy" fill="#FFFFFF" cx="9.5" cy="9.5" r="3.5"></circle>
                    </g>
                </g>
            </g>
            <g id="left-ellipse" transform="translate(551.000000, 13.000000)">
                <g id="ellipse(green)" transform="translate(0.000000, 91.000000)">
                    <g id="Group-3-Copy-12">
                        <circle id="Oval-7-Copy" fill="#ADD200" cx="9.5" cy="9.5" r="9.5"></circle>
                        <circle id="Oval-8-Copy" fill="#FFFFFF" cx="9.5" cy="9.5" r="3.5"></circle>
                    </g>
                </g>
                <g id="ellipse(green)" transform="translate(0.000000, 2.000000)">
                    <g id="Group-3-Copy-12">
                        <circle id="Oval-7-Copy" fill="#ADD200" cx="9.5" cy="9.5" r="9.5"></circle>
                        <circle id="Oval-8-Copy" fill="#FFFFFF" cx="9.5" cy="9.5" r="3.5"></circle>
                    </g>
                </g>
                <g id="ellipse(green)" transform="translate(99.000000, 1.000000)">
                    <g id="Group-3-Copy-12">
                        <circle id="Oval-7-Copy" fill="#ADD200" cx="9.5" cy="9.5" r="9.5"></circle>
                        <circle id="Oval-8-Copy" fill="#FFFFFF" cx="9.5" cy="9.5" r="3.5"></circle>
                    </g>
                </g>
                <g id="ellipse(green)" transform="translate(167.000000, 1.000000)">
                    <g id="Group-3-Copy-12">
                        <circle id="Oval-7-Copy" fill="#ADD200" cx="9.5" cy="9.5" r="9.5"></circle>
                        <circle id="Oval-8-Copy" fill="#FFFFFF" cx="9.5" cy="9.5" r="3.5"></circle>
                    </g>
                </g>
                <g id="ellipse(green)" transform="translate(99.000000, 91.000000)">
                    <g id="Group-3-Copy-12">
                        <circle id="Oval-7-Copy" fill="#ADD200" cx="9.5" cy="9.5" r="9.5"></circle>
                        <circle id="Oval-8-Copy" fill="#FFFFFF" cx="9.5" cy="9.5" r="3.5"></circle>
                    </g>
                </g>
                <g id="ellipse(green)" transform="translate(167.000000, 91.000000)">
                    <g id="Group-3-Copy-12">
                        <circle id="Oval-7-Copy" fill="#ADD200" cx="9.5" cy="9.5" r="9.5"></circle>
                        <circle id="Oval-8-Copy" fill="#FFFFFF" cx="9.5" cy="9.5" r="3.5"></circle>
                    </g>
                </g>
                <g id="ellipse(green)" transform="translate(387.000000, 0.000000)">
                    <g id="Group-3-Copy-12">
                        <circle id="Oval-7-Copy" fill="#ADD200" cx="9.5" cy="9.5" r="9.5"></circle>
                        <circle id="Oval-8-Copy" fill="#FFFFFF" cx="9.5" cy="9.5" r="3.5"></circle>
                    </g>
                </g>
                <g id="ellipse(green)" transform="translate(314.000000, 0.000000)">
                    <g id="Group-3-Copy-12">
                        <circle id="Oval-7-Copy" fill="#ADD200" cx="9.5" cy="9.5" r="9.5"></circle>
                        <circle id="Oval-8-Copy" fill="#FFFFFF" cx="9.5" cy="9.5" r="3.5"></circle>
                    </g>
                </g>
                <g id="ellipse(green)" transform="translate(350.000000, 91.000000)">
                    <g id="Group-3-Copy-12">
                        <circle id="Oval-7-Copy" fill="#ADD200" cx="9.5" cy="9.5" r="9.5"></circle>
                        <circle id="Oval-8-Copy" fill="#FFFFFF" cx="9.5" cy="9.5" r="3.5"></circle>
                    </g>
                </g>
            </g>
        </g>
    </g>
</svg>