<?xml version="1.0" encoding="UTF-8"?>
<svg width="1059px" height="151px" viewBox="0 0 1059 151" version="1.1" xmlns="http://www.w3.org/2000/svg" xmlns:xlink="http://www.w3.org/1999/xlink">
    <!-- Generator: Sketch 48.2 (47327) - http://www.bohemiancoding.com/sketch -->
    <title>home logo</title>
    <desc>Created with Sketch.</desc>
    <defs>
        <linearGradient x1="98.1465242%" y1="50%" x2="0%" y2="50%" id="linearGradient-1">
            <stop stop-color="#ADD200" offset="0%"></stop>
            <stop stop-color="#ADD200" offset="49.5826014%"></stop>
            <stop stop-color="#555555" offset="50.1099778%"></stop>
            <stop stop-color="#555555" offset="52.2301512%"></stop>
            <stop stop-color="#555555" offset="100%"></stop>
        </linearGradient>
    </defs>
    <g id="Tree" stroke="none" stroke-width="1" fill="none" fill-rule="evenodd" transform="translate(-142.000000, -213.000000)">
        <g id="home-logo" transform="translate(134.000000, 208.000000)">
            <g id="under_line" transform="translate(0.000000, 137.000000)" stroke-linecap="square" stroke-width="8">
                <path d="M12,14.5 L514,14.5" id="Line" stroke="#555555"></path>
                <path d="M521.999767,14.5 L1059,14.5" id="Line-Copy" stroke="#ADD200"></path>
            </g>
            <path d="M11.4951568,12.7109375 L31.5342193,12.7109375 L61.2060943,100.039062 L90.6670318,12.7109375 L110.495157,12.7109375 L110.495157,116 L97.2060943,116 L97.2060943,55.0390625 C97.2060943,52.929677 97.2529688,49.4375244 97.3467193,44.5625 C97.4404697,39.6874756 97.4873443,34.4609654 97.4873443,28.8828125 L68.0264068,116 L54.1748443,116 L24.5029693,28.8828125 L24.5029693,32.046875 C24.5029693,34.5781377 24.5615624,38.4335679 24.6787505,43.6132813 C24.7959386,48.7929946 24.8545318,52.6015503 24.8545318,55.0390625 L24.8545318,116 L11.4951568,116 L11.4951568,12.7109375 Z M221.384091,27.4765625 C228.227876,36.6172332 231.649716,48.3124287 231.649716,62.5625 C231.649716,77.9844521 227.735693,90.8046364 219.907529,101.023438 C210.719983,113.023498 197.618551,119.023438 180.602841,119.023438 C164.712137,119.023438 152.220074,113.77349 143.126279,103.273438 C135.016863,93.1483869 130.962216,80.3516398 130.962216,64.8828125 C130.962216,50.9139927 134.430932,38.9609872 141.368466,29.0234375 C150.274761,16.2733738 163.446504,9.8984375 180.884091,9.8984375 C199.118558,9.8984375 212.618423,15.7577539 221.384091,27.4765625 Z M209.044248,93.2539062 C214.552088,84.4179246 217.305966,74.2578699 217.305966,62.7734375 C217.305966,50.6327518 214.130217,40.859412 207.778623,33.453125 C201.427028,26.046838 192.743521,22.34375 181.727841,22.34375 C171.040288,22.34375 162.321625,26.0116821 155.571591,33.3476562 C148.821558,40.6836304 145.446591,51.4999285 145.446591,65.796875 C145.446591,77.2344322 148.341094,86.878867 154.130185,94.7304688 C159.919277,102.582071 169.305901,106.507812 182.290341,106.507812 C194.618528,106.507812 203.536408,102.089888 209.044248,93.2539062 Z M260.976151,12.7109375 L290.648026,100.671875 L319.968338,12.7109375 L335.648026,12.7109375 L297.960526,116 L283.124588,116 L245.507401,12.7109375 L260.976151,12.7109375 Z M356.536961,12.7109375 L370.669773,12.7109375 L370.669773,116 L356.536961,116 L356.536961,12.7109375 Z M399.22277,12.7109375 L474.527458,12.7109375 L474.527458,25.3671875 L412.863395,25.3671875 L412.863395,56.7265625 L469.886833,56.7265625 L469.886833,68.6796875 L412.863395,68.6796875 L412.863395,103.695313 L475.582145,103.695313 L475.582145,116 L399.22277,116 L399.22277,12.7109375 Z M557.289702,12.7109375 L603.766264,12.7109375 C612.95381,12.7109375 620.359986,15.3007554 625.985014,20.4804688 C631.610043,25.6601821 634.422514,32.9374531 634.422514,42.3125 C634.422514,50.3750403 631.914727,57.3945014 626.899077,63.3710938 C621.883427,69.3476861 614.172566,72.3359375 603.766264,72.3359375 L571.281889,72.3359375 L571.281889,116 L557.289702,116 L557.289702,12.7109375 Z M611.852202,26.9140625 C608.758436,25.4609302 604.516291,24.734375 599.125639,24.734375 L571.281889,24.734375 L571.281889,60.5234375 L599.125639,60.5234375 C605.406921,60.5234375 610.504526,59.1875134 614.418608,56.515625 C618.33269,53.8437366 620.289702,49.1328463 620.289702,42.3828125 C620.289702,34.7890245 617.47723,29.6328261 611.852202,26.9140625 Z M656.858324,12.7109375 L670.991137,12.7109375 L670.991137,55.390625 L724.709887,55.390625 L724.709887,12.7109375 L738.842699,12.7109375 L738.842699,116 L724.709887,116 L724.709887,67.6953125 L670.991137,67.6953125 L670.991137,116 L656.858324,116 L656.858324,12.7109375 Z M850.083196,27.4765625 C856.92698,36.6172332 860.348821,48.3124287 860.348821,62.5625 C860.348821,77.9844521 856.434798,90.8046364 848.606634,101.023438 C839.419088,113.023498 826.317656,119.023438 809.301946,119.023438 C793.411242,119.023438 780.919179,113.77349 771.825384,103.273438 C763.715968,93.1483869 759.661321,80.3516398 759.661321,64.8828125 C759.661321,50.9139927 763.130036,38.9609872 770.067571,29.0234375 C778.973866,16.2733738 792.145609,9.8984375 809.583196,9.8984375 C827.817662,9.8984375 841.317527,15.7577539 850.083196,27.4765625 Z M837.743352,93.2539062 C843.251192,84.4179246 846.005071,74.2578699 846.005071,62.7734375 C846.005071,50.6327518 842.829322,40.859412 836.477727,33.453125 C830.126133,26.046838 821.442626,22.34375 810.426946,22.34375 C799.739393,22.34375 791.02073,26.0116821 784.270696,33.3476562 C777.520662,40.6836304 774.145696,51.4999285 774.145696,65.796875 C774.145696,77.2344322 777.040198,86.878867 782.82929,94.7304688 C788.618381,102.582071 798.005006,106.507812 810.989446,106.507812 C823.317633,106.507812 832.235512,102.089888 837.743352,93.2539062 Z M956.683068,12.7109375 L956.683068,25.015625 L921.878381,25.015625 L921.878381,116 L907.675256,116 L907.675256,25.015625 L872.870568,25.015625 L872.870568,12.7109375 L956.683068,12.7109375 Z M1056.53294,27.4765625 C1063.37672,36.6172332 1066.79857,48.3124287 1066.79857,62.5625 C1066.79857,77.9844521 1062.88454,90.8046364 1055.05638,101.023438 C1045.86883,113.023498 1032.7674,119.023438 1015.75169,119.023438 C999.860986,119.023438 987.368923,113.77349 978.275128,103.273438 C970.165712,93.1483869 966.111065,80.3516398 966.111065,64.8828125 C966.111065,50.9139927 969.579781,38.9609872 976.517315,29.0234375 C985.42361,16.2733738 998.595353,9.8984375 1016.03294,9.8984375 C1034.26741,9.8984375 1047.76727,15.7577539 1056.53294,27.4765625 Z M1044.1931,93.2539062 C1049.70094,84.4179246 1052.45482,74.2578699 1052.45482,62.7734375 C1052.45482,50.6327518 1049.27907,40.859412 1042.92747,33.453125 C1036.57588,26.046838 1027.89237,22.34375 1016.87669,22.34375 C1006.18914,22.34375 997.470474,26.0116821 990.72044,33.3476562 C983.970407,40.6836304 980.59544,51.4999285 980.59544,65.796875 C980.59544,77.2344322 983.489943,86.878867 989.279034,94.7304688 C995.068126,102.582071 1004.45475,106.507812 1017.43919,106.507812 C1029.76738,106.507812 1038.68526,102.089888 1044.1931,93.2539062 Z" id="MOVIE/PHOTO" fill="url(#linearGradient-1)" opacity="0.99000001"></path>
            <g id="right_ellipse" transform="translate(4.000000, 0.000000)">
                <g id="small-eye" transform="translate(0.000000, 96.000000)">
                    <g id="Group-3-Copy-12" transform="translate(5.000000, 5.000000)">
                        <circle id="Oval-7-Copy" fill="#555555" cx="9.5" cy="9.5" r="9.5"></circle>
                        <circle id="Oval-8-Copy" fill="#FFFFFF" cx="9.5" cy="9.5" r="3.5"></circle>
                    </g>
                </g>
                <g id="small-eye" transform="translate(2.000000, 0.000000)">
                    <g id="Group-3-Copy-12" transform="translate(5.000000, 5.000000)">
                        <circle id="Oval-7-Copy" fill="#555555" cx="9.5" cy="9.5" r="9.5"></circle>
                        <circle id="Oval-8-Copy" fill="#FFFFFF" cx="9.5" cy="9.5" r="3.5"></circle>
                    </g>
                </g>
                <g id="small-eye" transform="translate(43.000000, 96.000000)">
                    <g id="Group-3-Copy-12" transform="translate(5.000000, 5.000000)">
                        <circle id="Oval-7-Copy" fill="#555555" cx="9.5" cy="9.5" r="9.5"></circle>
                        <circle id="Oval-8-Copy" fill="#FFFFFF" cx="9.5" cy="9.5" r="3.5"></circle>
                    </g>
                </g>
                <g id="small-eye" transform="translate(86.000000, 96.000000)">
                    <g id="Group-3-Copy-12" transform="translate(5.000000, 5.000000)">
                        <circle id="Oval-7-Copy" fill="#555555" cx="9.5" cy="9.5" r="9.5"></circle>
                        <circle id="Oval-8-Copy" fill="#FFFFFF" cx="9.5" cy="9.5" r="3.5"></circle>
                    </g>
                </g>
                <g id="small-eye" transform="translate(83.000000, 0.000000)">
                    <g id="Group-3-Copy-12" transform="translate(5.000000, 5.000000)">
                        <circle id="Oval-7-Copy" fill="#555555" cx="9.5" cy="9.5" r="9.5"></circle>
                        <circle id="Oval-8-Copy" fill="#FFFFFF" cx="9.5" cy="9.5" r="3.5"></circle>
                    </g>
                </g>
                <g id="small-eye" transform="translate(236.000000, 4.000000)">
                    <g id="Group-3-Copy-12" transform="translate(5.000000, 5.000000)">
                        <circle id="Oval-7-Copy" fill="#555555" cx="9.5" cy="9.5" r="9.5"></circle>
                        <circle id="Oval-8-Copy" fill="#FFFFFF" cx="9.5" cy="9.5" r="3.5"></circle>
                    </g>
                </g>
                <g id="small-eye" transform="translate(272.000000, 96.000000)">
                    <g id="Group-3-Copy-12" transform="translate(5.000000, 5.000000)">
                        <circle id="Oval-7-Copy" fill="#555555" cx="9.5" cy="9.5" r="9.5"></circle>
                        <circle id="Oval-8-Copy" fill="#FFFFFF" cx="9.5" cy="9.5" r="3.5"></circle>
                    </g>
                </g>
                <g id="small-eye" transform="translate(308.000000, 4.000000)">
                    <g id="Group-3-Copy-12" transform="translate(5.000000, 5.000000)">
                        <circle id="Oval-7-Copy" fill="#555555" cx="9.5" cy="9.5" r="9.5"></circle>
                        <circle id="Oval-8-Copy" fill="#FFFFFF" cx="9.5" cy="9.5" r="3.5"></circle>
                    </g>
                </g>
                <g id="small-eye" transform="translate(345.000000, 4.000000)">
                    <g id="Group-3-Copy-12" transform="translate(5.000000, 5.000000)">
                        <circle id="Oval-7-Copy" fill="#555555" cx="9.5" cy="9.5" r="9.5"></circle>
                        <circle id="Oval-8-Copy" fill="#FFFFFF" cx="9.5" cy="9.5" r="3.5"></circle>
                    </g>
                </g>
                <g id="small-eye" transform="translate(452.000000, 4.000000)">
                    <g id="Group-3-Copy-12" transform="translate(5.000000, 5.000000)">
                        <circle id="Oval-7-Copy" fill="#555555" cx="9.5" cy="9.5" r="9.5"></circle>
                        <circle id="Oval-8-Copy" fill="#FFFFFF" cx="9.5" cy="9.5" r="3.5"></circle>
                    </g>
                </g>
                <g id="small-eye" transform="translate(448.000000, 48.000000)">
                    <g id="Group-3-Copy-12" transform="translate(5.000000, 5.000000)">
                        <circle id="Oval-7-Copy" fill="#555555" cx="9.5" cy="9.5" r="9.5"></circle>
                        <circle id="Oval-8-Copy" fill="#FFFFFF" cx="9.5" cy="9.5" r="3.5"></circle>
                    </g>
                </g>
                <g id="small-eye" transform="translate(452.000000, 95.000000)">
                    <g id="Group-3-Copy-12" transform="translate(5.000000, 5.000000)">
                        <circle id="Oval-7-Copy" fill="#555555" cx="9.5" cy="9.5" r="9.5"></circle>
                        <circle id="Oval-8-Copy" fill="#FFFFFF" cx="9.5" cy="9.5" r="3.5"></circle>
                    </g>
                </g>
                <g id="small-eye" transform="translate(389.000000, 4.000000)">
                    <g id="Group-3-Copy-12" transform="translate(5.000000, 5.000000)">
                        <circle id="Oval-7-Copy" fill="#555555" cx="9.5" cy="9.5" r="9.5"></circle>
                        <circle id="Oval-8-Copy" fill="#FFFFFF" cx="9.5" cy="9.5" r="3.5"></circle>
                    </g>
                </g>
                <g id="small-eye" transform="translate(389.000000, 95.000000)">
                    <g id="Group-3-Copy-12" transform="translate(5.000000, 5.000000)">
                        <circle id="Oval-7-Copy" fill="#555555" cx="9.5" cy="9.5" r="9.5"></circle>
                        <circle id="Oval-8-Copy" fill="#FFFFFF" cx="9.5" cy="9.5" r="3.5"></circle>
                    </g>
                </g>
                <g id="small-eye" transform="translate(345.000000, 96.000000)">
                    <g id="Group-3-Copy-12" transform="translate(5.000000, 5.000000)">
                        <circle id="Oval-7-Copy" fill="#555555" cx="9.5" cy="9.5" r="9.5"></circle>
                        <circle id="Oval-8-Copy" fill="#FFFFFF" cx="9.5" cy="9.5" r="3.5"></circle>
                    </g>
                </g>
            </g>
            <g id="div_line" transform="translate(500.000000, 58.000000)" stroke-linecap="square" stroke-width="10">
                <path d="M0,5 L13,5" id="Line" stroke="#555555"></path>
                <path d="M23,5 L36,5" id="Line-Copy" stroke="#ADD200"></path>
            </g>
            <g id="left_ellipse" transform="translate(555.000000, 9.000000)">
                <g id="ellipse(green)" transform="translate(0.000000, 91.000000)">
                    <g id="Group-3-Copy-12">
                        <circle id="Oval-7-Copy" fill="#ADD200" cx="9.5" cy="9.5" r="9.5"></circle>
                        <circle id="Oval-8-Copy" fill="#FFFFFF" cx="9.5" cy="9.5" r="3.5"></circle>
                    </g>
                </g>
                <g id="ellipse(green)" transform="translate(0.000000, 2.000000)">
                    <g id="Group-3-Copy-12">
                        <circle id="Oval-7-Copy" fill="#ADD200" cx="9.5" cy="9.5" r="9.5"></circle>
                        <circle id="Oval-8-Copy" fill="#FFFFFF" cx="9.5" cy="9.5" r="3.5"></circle>
                    </g>
                </g>
                <g id="ellipse(green)" transform="translate(99.000000, 1.000000)">
                    <g id="Group-3-Copy-12">
                        <circle id="Oval-7-Copy" fill="#ADD200" cx="9.5" cy="9.5" r="9.5"></circle>
                        <circle id="Oval-8-Copy" fill="#FFFFFF" cx="9.5" cy="9.5" r="3.5"></circle>
                    </g>
                </g>
                <g id="ellipse(green)" transform="translate(167.000000, 1.000000)">
                    <g id="Group-3-Copy-12">
                        <circle id="Oval-7-Copy" fill="#ADD200" cx="9.5" cy="9.5" r="9.5"></circle>
                        <circle id="Oval-8-Copy" fill="#FFFFFF" cx="9.5" cy="9.5" r="3.5"></circle>
                    </g>
                </g>
                <g id="ellipse(green)" transform="translate(99.000000, 91.000000)">
                    <g id="Group-3-Copy-12">
                        <circle id="Oval-7-Copy" fill="#ADD200" cx="9.5" cy="9.5" r="9.5"></circle>
                        <circle id="Oval-8-Copy" fill="#FFFFFF" cx="9.5" cy="9.5" r="3.5"></circle>
                    </g>
                </g>
                <g id="ellipse(green)" transform="translate(167.000000, 91.000000)">
                    <g id="Group-3-Copy-12">
                        <circle id="Oval-7-Copy" fill="#ADD200" cx="9.5" cy="9.5" r="9.5"></circle>
                        <circle id="Oval-8-Copy" fill="#FFFFFF" cx="9.5" cy="9.5" r="3.5"></circle>
                    </g>
                </g>
                <g id="ellipse(green)" transform="translate(387.000000, 0.000000)">
                    <g id="Group-3-Copy-12">
                        <circle id="Oval-7-Copy" fill="#ADD200" cx="9.5" cy="9.5" r="9.5"></circle>
                        <circle id="Oval-8-Copy" fill="#FFFFFF" cx="9.5" cy="9.5" r="3.5"></circle>
                    </g>
                </g>
                <g id="ellipse(green)" transform="translate(314.000000, 0.000000)">
                    <g id="Group-3-Copy-12">
                        <circle id="Oval-7-Copy" fill="#ADD200" cx="9.5" cy="9.5" r="9.5"></circle>
                        <circle id="Oval-8-Copy" fill="#FFFFFF" cx="9.5" cy="9.5" r="3.5"></circle>
                    </g>
                </g>
                <g id="ellipse(green)" transform="translate(350.000000, 91.000000)">
                    <g id="Group-3-Copy-12">
                        <circle id="Oval-7-Copy" fill="#ADD200" cx="9.5" cy="9.5" r="9.5"></circle>
                        <circle id="Oval-8-Copy" fill="#FFFFFF" cx="9.5" cy="9.5" r="3.5"></circle>
                    </g>
                </g>
            </g>
        </g>
    </g>
</svg>