<?xml version="1.0" encoding="UTF-8"?>
<svg width="1280px" height="588px" viewBox="0 0 1280 588" version="1.1" xmlns="http://www.w3.org/2000/svg" xmlns:xlink="http://www.w3.org/1999/xlink">
    <!-- Generator: Sketch 48.2 (47327) - http://www.bohemiancoding.com/sketch -->
    <title>img</title>
    <desc>Created with Sketch.</desc>
    <defs>
        <rect id="path-1" x="0" y="0" width="1280" height="587.902037"></rect>
        <linearGradient x1="50%" y1="0%" x2="50%" y2="100%" id="linearGradient-3">
            <stop stop-color="#9CAF83" offset="0%"></stop>
            <stop stop-color="#333333" offset="100%"></stop>
        </linearGradient>
    </defs>
    <g id="Artboard-2" stroke="none" stroke-width="1" fill="none" fill-rule="evenodd" transform="translate(0.000000, -206.000000)">
        <g id="img" transform="translate(0.000000, 206.000000)">
            <g id="Clipped">
                <mask id="mask-2" fill="white">
                    <use xlink:href="#path-1"></use>
                </mask>
                <g id="SVGID_1_"></g>
                <g id="tree" mask="url(#mask-2)" fill-rule="nonzero">
                    <g transform="translate(710.000000, 39.000000)" id="Shape">
                        <path d="M107.971458,278.659105 C136.068659,270.43206 131.35359,280.145369 140.425499,280.78504 C140.270106,278.998017 140.174877,277.206181 139.975135,275.426032 C140.425499,275.428439 140.875863,275.451468 141.328633,275.493402 C141.903105,278.135956 139.537148,283.288042 143.800821,292.939137 C144.063132,293.345419 143.849639,293.807041 143.724156,294.227073 C145.028492,295.896199 150.187392,302.08427 150.785586,302.897866 C149.738748,302.9398 148.693972,302.82809 147.649541,302.874492 C147.66123,302.976579 147.681857,303.183157 147.691139,303.285243 C149.265006,303.742397 150.889754,304.009471 152.489405,304.371412 C149.860793,306.549594 148.050055,305.102858 131.340183,296.290107 C132.073829,294.779438 132.846667,293.289392 133.51293,291.748132 C132.846667,291.395471 132.178341,291.044872 131.491106,290.745488 C130.894632,292.154414 130.24934,293.54203 129.673493,294.962299 C128.064903,294.187201 126.646429,293.049816 125.112098,292.133103 C125.831649,290.957909 126.054424,289.866584 123.285202,288.164461 C122.995044,289.090454 122.500676,289.972451 122.377599,290.942442 C130.434642,297.304094 140.558545,304.91106 150.908662,308.706121 C150.908662,308.706121 142.871559,318.626353 140.054207,326.992262 C138.54291,332.483604 135.114644,337.136602 132.48672,342.115107 C140.345052,336.224014 147.025907,307.958177 153.095161,310.382122 C197.831071,327.226339 192.695892,321.964605 210.784015,332.687777 C210.148005,332.984754 209.488618,333.240142 208.913114,333.648486 C219.538262,331.656259 250.529825,363.675567 256.917427,372.448446 C256.573638,372.274178 237.700988,358.376024 222.125964,366.117042 C225.100084,365.890184 237.913106,360.380281 255.069904,372.831355 C292.818299,401.42648 254.268876,457.362823 239.512413,485.887484 C223.764807,516.752909 223.794372,534.928026 224.240955,550 L285.568473,550 C262.736403,534.685701 280.204674,499.432633 295.668999,443.408641 C311.145356,388.007134 284.634742,399.003566 311.813682,368.667821 C348.519364,324.664904 362.386444,349.52615 378.804096,349.910778 C375.520565,347.304659 370.775931,353.098135 358.53463,334.026927 C355.698369,332.466418 351.651627,327.226339 340.521453,325.063624 C339.075132,324.845359 338.993997,323.081709 338.418494,322.030256 C335.603549,324.012515 341.479593,325.198364 325.649133,324.915135 C328.513928,319.345768 333.35998,319.535504 338.908394,321.62638 C338.899112,321.306029 338.894299,320.994958 338.894299,320.686294 C336.343039,320.166582 333.780435,319.695336 331.227112,319.19178 C332.120621,318.031366 333.418425,317.232894 334.483827,316.228187 C334.402693,316.891919 334.328435,317.560463 334.267928,318.23107 C334.73445,318.149951 335.210254,318.077769 335.683995,318.00593 C335.46122,318.354123 335.231225,318.697504 335.00398,319.043291 C342.582812,319.399045 338.723091,313.344683 342.833779,310.87846 C372.89711,297.989137 380.127684,316.018172 393.284839,314.336672 C375.630234,308.030015 362.035779,300.577038 345.895565,307.750224 C340.504607,309.881315 342.432233,309.763762 340.115438,309.367791 C340.048055,309.219302 339.915696,308.922324 339.848657,308.773491 C338.11321,310.152858 335.769599,313.786713 334.776736,313.285219 C337.662158,307.173798 346.219414,305.08739 353.066319,304.059654 C352.933961,303.98541 352.806415,303.91804 352.685745,303.853076 C353.801341,304.167584 356.085476,303.422045 359.589375,303.42617 C377.844924,302.729784 382.6841,312.345476 403.984246,308.986944 C402.332682,308.468952 397.192003,308.937448 393.055532,308.594755 C377.634869,307.551207 371.128315,296.101746 340.137096,305.589228 C340.032584,305.387462 339.932886,305.192226 339.837656,305.002147 C340.639029,304.442907 347.43299,299.510805 349.180814,298.055819 C345.687572,298.576562 340.762449,298.460383 334.449792,304.301293 C331.818086,306.935253 323.8243,316.975788 323.555801,314.910004 C333.55594,299.943898 355.859263,285.49544 371.660157,272.21324 C378.959832,265.992171 379.934131,264.486658 381.53275,264.06697 C384.470429,263.255781 391.782137,275.396128 392.619263,283.657202 C393.099537,287.129163 392.391675,290.591843 392.006287,294.033899 C392.189527,294.674602 392.756091,295.136224 393.166919,295.651467 C393.076847,292.378179 393.474267,286.194232 393.320249,284.732028 C392.855103,274.790142 387.115542,268.503422 386.054609,266.473729 C406.485656,276.582322 403.147119,292.882766 410.170388,299.861748 C402.321337,270.229262 390.895504,268.030457 383.31289,262.567988 C385.633467,260.234099 385.596682,261.713145 399.559679,265.445649 C399.792768,263.233439 391.781449,261.378358 387.465864,259.813037 C387.983266,259.392318 409.931111,245.598312 434.281697,249.88215 C445.197691,251.672267 451.391053,255.473172 463.198148,261.203402 C467.984725,263.441048 463.251436,265.065834 470.732975,301.804478 C471.046167,301.743983 471.364516,301.688299 471.691803,301.637428 C467.545706,289.548295 468.241535,278.095397 466.51537,262.670418 C470.79142,263.506012 475.046154,264.469128 479.335956,265.234946 C479.368616,264.933156 479.410214,264.638584 479.456626,264.346075 C463.701799,259.907561 467.478667,264.336794 462.998751,249.589984 C456.754164,231.038144 439.252545,220.815779 424.504677,213.969475 C424.17739,213.895231 424.110007,213.577286 424.112414,213.298869 C450.614777,218.121323 465.896893,229.976379 471.455276,240.190495 C474.234812,241.492523 477.79578,248.645429 480.276219,251.281796 C476.660588,240.385043 454.775657,207.731908 404.281623,211.609119 C404.64157,210.998665 405.240107,210.550792 405.495543,209.880185 C403.110334,210.930951 402.093749,212.722787 399.195606,211.581278 C399.948848,210.274437 402.040118,209.707979 404.330441,208.288054 C418.685702,200.508882 418.75446,200.429138 426.027663,202.732092 C425.683187,202.748934 418.310284,202.892267 416.619529,203.089565 C421.264808,206.217458 426.987523,209.204423 432.6016,209.550897 C432.183552,201.840814 433.722696,200.981159 424.922725,199.494551 C446.423643,191.541798 466.725769,199.427181 474.549723,201.550711 C475.499268,201.771382 476.392777,202.692563 476.098149,203.729924 C473.979377,211.631118 479.030671,223.064768 480.62929,224.436572 C482.503629,219.684238 482.063235,216.130471 481.079654,211.195963 C484.443631,215.139513 482.595421,222.256328 482.302856,223.99798 C491.29363,214.517372 485.125021,209.13396 482.400492,205.568162 C497.658887,214.247205 515.805111,216.848167 528,214.795789 C527.11543,214.333823 526.040746,214.642488 525.082261,214.566181 C508.823096,215.388026 495.622624,210.903453 482.811664,203.365576 C477.012628,200.26965 474.060855,199.240882 473.514917,198.508062 C480.976518,198.872753 487.849207,197.952259 494.14433,193.673577 C494.230278,193.573897 494.402172,193.374193 494.487776,193.276576 C479.144465,199.371841 476.820794,199.364623 457.010631,194.142418 C478.608154,183.961987 488.089515,170.453272 485.936364,144.178975 C485.896828,144.176569 485.8181,144.174163 485.776158,144.1721 C485.141179,162.429712 483.473458,183.637167 454.763625,193.972961 C453.630839,194.033113 442.216695,194.119732 438.038625,194.058893 C433.778734,191.738752 403.045357,205.410393 402.701568,205.533102 C403.350986,204.491961 408.440785,197.845017 415.635948,188.240325 C415.754212,188.910931 415.877288,189.583944 416.000365,190.261768 C414.307547,192.047073 415.141579,191.980047 416.176728,194.107358 C419.558583,191.588889 418.166924,191.856306 420.682429,193.807974 C422.097122,188.791315 419.685441,188.752474 417.7946,188.003499 C416.205607,186.556763 416.601308,186.963045 425.775322,172.908496 C426.114298,172.622861 425.863676,171.908258 425.417781,172.270199 C417.059579,183.556736 416.602339,185.932903 414.588766,184.972193 C410.551306,194.520514 384.546062,218.121323 376.730703,219.592464 C355.796349,223.406774 347.422333,232.505847 344.492561,233.833311 C348.545492,226.213284 350.143768,218.768212 349.188721,210.334589 C350.864694,210.056172 352.556824,209.875029 354.242078,209.647484 C353.948139,212.500397 355.162746,214.729794 358.25788,216.417481 L358.550444,216.401326 C359.054095,213.291994 358.817225,211.412509 356.080663,209.819346 C357.286331,209.622392 361.755591,208.756206 363.515791,208.313146 C363.448409,208.234089 363.309174,208.074257 363.241791,207.9952 C362.893877,208.029229 351.892623,209.045279 348.898563,209.250826 C347.139394,196.754036 339.374228,195.449945 344.091016,192.705306 C344.47159,194.436646 344.534504,196.230544 344.984867,197.948135 C346.881208,192.64206 346.559078,192.750334 347.069261,192.498727 C347.173429,193.445688 346.812451,193.768102 345.903816,198.723233 C348.864528,196.90665 351.984415,192.876824 352.999968,188.636639 C352.939461,188.35341 353.004781,188.107647 353.197303,187.898663 C353.236839,187.466945 353.276375,187.040039 353.306284,186.61279 C351.648877,186.95617 349.995938,187.337017 348.308621,187.485506 C348.74764,186.562262 351.445697,184.011827 352.16181,183.414777 C385.075841,153.465378 399.212452,173.82074 431.524508,145.579996 C422.683282,151.087836 413.521301,159.297695 391.298769,161.851568 C391.273329,161.88869 391.222104,161.962934 391.196664,162.000057 C381.363606,161.929249 366.773881,169.166368 358.443182,174.690363 C358.756374,173.478735 359.675666,172.527305 360.188943,171.394733 C368.759951,153.936968 370.957452,145.094657 380.802198,134.439542 C383.799008,131.260435 405.164818,123.245468 423.806441,134.608999 C425.164409,135.370348 426.343606,136.49364 427.880343,136.911265 C426.53544,134.468072 421.206708,132.112528 418.446768,130.930459 C404.611661,124.856505 393.80121,128.847489 384.783277,130.563705 C385.228828,129.846696 385.953191,129.384731 386.57545,128.834771 C413.267928,106.704416 428.437625,122.145206 450.952034,111.579117 C450.93347,111.537526 450.893934,111.451595 450.875369,111.407254 C437.821351,116.05269 435.045941,114.39697 410.77752,114.881621 C421.983671,105.079975 420.783503,109.081958 433.890809,87.6720496 C430.665379,91.1275115 422.942843,108.245677 404.461425,116.550403 C398.326851,119.334228 386.561354,121.682553 371.027928,143.124084 C371.261705,141.050395 372.188217,132.909281 373.244681,131.095103 C371.986756,127.901216 373.411762,122.164455 371.134503,111.569836 C367.860599,95.9564964 362.249616,89.2899606 353.225838,73.0156389 L353.279125,72.8740245 C365.460263,65.8916059 374.500543,56.4405584 380.45669,44.9890345 C380.159312,45.332759 366.134089,66.1958021 352.663742,70.8085842 C348.255334,59.22782 348.126413,51.6016055 347.378328,44.2531204 C346.995346,53.2813869 348.135008,62.4113958 351.027306,70.9869772 C345.295997,75.6310383 339.620381,80.3493439 333.856756,84.9538766 C342.4728,64.6631347 332.515634,45.9892727 329.376495,43.4013713 C329.677655,45.6393612 339.179987,57.1008531 335.755503,74.5775229 C334.674286,80.9013653 333.378201,86.8388615 328.00237,90.4823408 C327.642423,90.7421964 327.157336,90.9209332 327.043542,91.3945854 C327.993088,91.088327 328.882127,90.6194868 329.826859,90.2898551 C320.232047,104.090392 314.043155,117.906396 312.934778,144.61413 C313.199496,145.08297 312.428721,145.041036 312.702721,144.593163 C304.537728,124.707672 309.791858,108.900472 322.505525,94.8895757 C314.719044,98.4474675 310.046606,112.585542 308.129637,120.908829 C305.746147,110.422484 298.662027,112.482424 294.786836,111.996742 C293.494188,111.868876 283.171575,98.8843413 282.9017,98.5402731 C283.879437,96.8288691 289.572585,91.2856248 289.712508,90.2547952 C288.564252,90.9821161 281.856581,98.3797538 281.611116,97.6723689 C280.520273,96.5026745 279.443181,95.3168252 278.222042,94.2815271 C275.689691,92.2281172 280.40751,89.2933979 280.318125,82.1064633 C279.42943,82.2776381 277.448173,89.5518787 275.996007,91.5289817 C276.034856,89.8000477 260.224335,65.4884172 270.840545,36.7681768 C276.639237,21.0905607 290.448216,10.7537353 297.549525,0.409691572 C297.724514,-1.07588551 296.937925,0.209987665 274.215867,26.4011035 C274.153297,26.0831584 274.104479,25.7696817 274.055661,25.4565487 C271.847847,34.2514263 263.45286,45.2592019 266.58581,67.0393019 C266.840214,69.2467003 262.049512,69.5110244 264.452598,74.2918878 C264.758915,73.5583799 264.925996,72.7788128 265.23025,72.0453048 C265.316197,71.9920275 265.485685,71.8851292 265.571288,71.8294459 C265.622513,73.0943518 265.37636,74.3451651 265.378766,75.6100711 C266.158824,74.8095369 266.862217,73.9392266 267.604801,73.1012263 C272.827646,89.2689934 272.501734,88.0477405 272.581493,88.685693 C273.064173,88.6740064 272.676723,89.4099205 272.465293,88.917707 C239.398275,62.6224427 223.28969,55.3042053 202.461911,1.30990591 C202.852799,3.73797545 207.94191,24.2236091 223.112295,47.3047061 C209.838251,37.5254017 199.271547,36.2237172 183.849853,40.0242785 C184.193642,40.0504016 208.270916,34.3163902 221.375816,47.871164 C200.449713,40.4126871 189.280003,47.3466405 187.59853,49.1013539 C192.394389,47.5741861 197.1043,45.5503365 202.16247,45.0677474 C211.964243,43.7949358 224.136443,50.252487 225.029607,50.9512789 C225.029607,50.9512789 239.059299,68.4241677 255.375877,80.9250823 C261.826393,86.0369524 251.582851,77.3881577 273.883423,95.6742986 C268.269346,105.69146 267.886365,111.470843 265.09961,119.709231 C265.315509,119.948119 265.814691,120.011021 265.81916,120.396336 C266.437981,142.622934 263.671166,130.106896 266.698917,141.305095 C266.499175,141.414055 266.304247,141.527828 266.113788,141.644007 C265.401113,140.258454 264.783667,138.828904 264.045552,137.459505 C261.050117,135.254513 256.047297,128.724092 255.837586,128.380368 C256.181375,128.101264 263.029311,121.856134 264.709753,120.134418 C263.767083,120.680596 263.657758,120.912267 254.80725,127.531025 C247.309895,121.165248 246.438046,121.800107 246.392666,116.961841 C245.424556,117.442368 244.670282,118.245309 243.732425,118.772238 C243.388636,118.761583 231.055887,109.147953 227.875494,97.5713139 C223.263218,84.8132933 234.217029,80.0076818 229.686231,71.3898223 C228.780691,90.4761537 216.612273,87.0571266 236.35746,114.170111 C237.042288,114.179392 236.582642,115.091637 236.280795,114.395251 C232.4888,112.954014 233.656308,114.415531 230.373122,111.310668 C230.178193,111.551962 229.99461,111.800475 229.81137,112.048644 C227.393845,110.084603 219.156313,91.6523788 216.519794,84.9318783 C216.229636,85.0222778 215.937071,85.1150834 215.653789,85.2102951 C215.845967,86.2937146 220.195244,96.1912602 226.245933,110.985848 C198.745894,106.310852 205.125933,116.314952 177.939773,109.398529 C177.619362,109.294036 176.983352,109.423964 177.171404,109.871837 C191.240976,113.766579 191.472346,114.466058 206.603195,111.812162 C216.521513,110.208 227.344683,112.698283 228.606733,114.207234 C229.904194,115.650876 229.950605,117.741752 229.885629,119.579991 C223.046975,115.773586 215.218552,113.219713 207.492234,114.483244 C221.182606,114.856529 229.290874,119.381662 229.488896,121.503816 C226.222899,121.174528 219.587768,117.627979 209.630259,120.679909 C208.430091,121.060412 207.095501,121.362202 206.231903,122.350753 C217.875354,118.731335 224.278428,120.750372 224.88831,121.375951 C218.198516,121.216119 215.263588,127.234047 215.375663,132.091217 C224.882809,129.564499 223.838034,129.538032 227.137722,123.311463 C226.608631,122.981832 225.953712,123.025828 225.371333,122.879745 C225.715122,122.568675 229.082881,122.277196 229.42667,122.248324 C222.279637,139.246873 210.547832,143.711853 200.150616,149.295657 C198.083068,139.115914 197.042762,140.364665 193.502421,131.211626 C186.197245,126.290179 175.192554,117.415901 174.613957,108.829321 C174.352333,108.229178 173.149071,106.099118 172.749932,105.601061 C174.301796,127.872343 190.650346,123.213846 196.508514,142.600248 C199.778636,153.089 199.026426,149.137544 184.609627,163.838295 C182.296613,157.566011 182.370872,157.855427 182.079338,157.493141 C181.709078,160.969227 185.481132,163.590126 182.290769,167.373157 C172.579069,179.665775 169.35742,191.717785 165.466071,204.026558 L165.189664,204.240011 C163.262038,190.502376 166.264693,168.853235 170.62394,155.891729 C170.62394,155.891729 179.269893,155.673464 179.270925,155.673464 C178.741833,150.814232 176.136599,149.480237 171.304298,150.061475 C175.715457,118.180345 163.451466,87.8555985 161.132264,85.5904543 C166.622921,99.2366588 168.504136,110.053667 169.62592,122.297132 C161.36054,117.008932 161.262561,123.809176 159.855431,124.808383 C159.925221,120.923266 160.22913,117.045023 160.238413,113.159905 C160.154872,113.215589 159.982977,113.329361 159.89703,113.385045 C159.209795,117.799154 158.604039,122.232168 157.891364,126.644216 C143.658836,109.245571 138.711022,104.678848 138.016568,92.7457663 C139.090909,91.851739 139.43298,87.4888445 143.195408,85.0961786 C139.47561,91.5262319 139.31781,91.4908283 138.763966,92.6715218 C139.701823,92.4209467 140.430656,91.7338415 141.249905,91.2464402 C144.133953,89.1510959 146.218346,92.0775659 152.95627,79.9485612 C144.440269,78.4870448 141.028161,81.0151381 138.125549,86.0245783 C138.306383,77.7459749 146.060891,70.1558515 145.755606,63.7003625 C145.563084,64.0437433 145.384314,64.3967483 145.210013,64.7518156 C145.161195,64.6985384 145.061496,64.5916401 145.012678,64.5383628 C144.92398,57.9732257 142.896312,55.7489848 134.882586,57.8752642 C136.885846,61.7232595 140.472254,64.410841 144.030816,66.7340746 C143.944869,65.5877535 143.631677,64.4758049 143.550199,63.3315462 C146.980183,65.7125255 141.310069,73.755334 138.647765,78.0250791 C138.575913,77.5215228 138.517813,77.0179665 138.436679,76.5212846 C138.392674,76.5886546 138.301913,76.725457 138.257908,76.795233 C134.745071,98.6952928 138.609948,100.783763 141.572723,108.978497 C113.941357,89.75227 103.748008,100.740797 83.5404242,87.9563097 C82.4774281,87.5129052 81.5718874,86.7725227 80.5205801,86.3177753 C80.0794986,86.2620919 80.060934,86.8168632 79.8938525,87.0976861 C102.773022,98.4993699 93.4515221,93.6037025 115.825321,99.0177064 C141.342385,105.227776 157.30039,127.073184 159.683881,135.729197 C156.868247,134.450542 154.242729,132.765604 151.42022,131.505167 C151.280986,131.765022 151.144158,132.027284 151.006986,132.289546 C153.328594,133.874459 161.68714,136.543824 163.820696,145.075064 C165.225418,151.639858 167.738173,155.867669 166.304572,160.47392 C159.410912,191.567234 159.53227,193.492435 163.994997,222.775008 C164.097102,222.960619 164.324691,223.408492 163.976432,223.473456 C158.301504,216.990126 147.192301,207.538734 135.631015,200.863606 C135.637891,200.030417 136.499083,199.359811 136.752112,198.545184 C135.990619,199.051146 135.315073,199.670882 134.621306,200.260369 C120.335148,193.095089 122.327406,195.214494 123.02186,190.737827 C124.031569,185.316261 124.212746,179.623153 122.736171,174.271363 C122.961353,180.586613 123.228133,187.108097 121.102141,193.165553 C112.542822,187.838167 103.996224,178.761436 102.72661,175.510834 C101.166495,171.630185 97.8547738,144.54126 115.99034,130.931834 C116.876972,129.98728 118.169963,129.455882 118.857198,128.325372 C108.035746,133.906426 98.4955968,147.883293 101.261724,173.340901 C101.032073,173.38971 100.806891,173.440581 100.58171,173.496265 C99.9687334,171.363454 99.3815415,169.223426 98.8129142,167.078929 C95.0618306,167.275883 88.6914173,148.107745 93.2394042,129.79445 C95.3942747,120.608758 94.5898081,110.507727 92.2599489,103.696484 C93.3903277,110.204219 93.9173565,116.888284 92.9516527,123.451703 C90.8755099,117.164639 91.3691912,116.793416 82.2759676,115.609629 C83.2207003,120.875832 86.625932,125.703098 91.393944,128.181695 C90.4423356,125.410588 89.1122153,122.776284 88.1396357,120.012396 C94.369783,124.570526 91.6459414,130.673697 89.3814022,144.583195 C89.5601725,145.121811 88.8822203,145.031068 88.9172868,144.56704 C84.7079322,135.08815 77.8187411,127.466404 69.8593342,120.641412 C69.9683154,121.592841 70.6833969,122.279946 71.3448472,122.902087 C76.5910699,127.768882 81.4378096,133.148513 85.140419,139.298775 C87.3602657,142.779329 83.9808181,142.621216 83.6060879,145.678645 C83.2973653,147.551599 84.6412371,149.197008 86.1085293,150.169405 C85.6873876,147.860264 84.664271,147.271807 86.027395,145.474472 C86.9631892,149.638694 86.9068077,149.830836 87.2505969,150.035008 C87.8618541,149.938422 87.8205994,149.35959 88.5666218,147.087571 C89.1221851,148.452501 95.1917829,168.621564 95.4004629,169.321387 C93.3246639,172.049185 92.9303378,175.273664 95.8020087,177.474531 C96.161956,175.608451 96.0316599,173.696312 96.2475595,171.818546 C96.3565406,171.811671 96.5748467,171.799984 96.6817652,171.79311 C96.978799,174.048973 97.1018755,176.325804 97.3968466,178.586136 C97.6034639,178.555889 97.8124878,178.528047 98.0235743,178.505017 C98.4344024,177.62302 98.775785,176.710776 99.170455,175.82431 C99.8999756,176.502135 113.010376,190.820321 113.334913,191.378873 C108.819929,191.221447 105.344565,187.308144 104.275037,186.778809 C105.099099,187.691053 105.999827,188.533522 106.777478,189.48942 C98.5877323,188.549677 89.5165113,187.444947 89.1727222,187.391326 C90.6290131,185.936684 93.2614067,183.836184 95.075926,182.259863 C95.4843475,182.099688 95.5101317,181.336276 94.9968545,181.412582 C89.7874172,182.864475 87.3186672,183.733754 86.6424339,183.728942 C86.58674,183.6107 86.4777589,183.371468 86.422065,183.250821 C89.0891814,182.238896 91.7635173,181.241064 94.4326964,180.231545 C94.4395722,179.964471 94.451261,179.700147 94.4629499,179.439948 C90.6589227,179.374984 86.301395,177.289608 82.1112926,183.687007 C79.6542314,187.163093 80.6986629,187.715114 77.3315918,188.157144 C47.8530458,191.246195 50.1450881,204.798219 0,198.489501 C12.7697049,202.514514 25.5951036,201.928464 27.2473544,202.086921 C26.0726268,202.834178 24.7425065,203.30783 23.5681227,204.066774 C18.2136064,207.135546 13.6621816,212.214762 13.8536721,213.078541 C14.5780359,212.927646 14.9469217,212.231261 15.4368213,211.75314 C27.2432289,198.656207 35.3786558,203.454257 53.6080764,196.744068 C70.8924207,190.065158 88.7202956,188.333474 107.722211,193.214018 C112.102428,194.078829 112.700965,196.377314 116.136794,200.93785 C116.347881,200.789361 116.561718,200.64534 116.777617,200.503726 C115.415181,198.489157 114.064089,196.467713 112.66418,194.480986 C121.86054,197.636033 120.421439,195.252648 119.674385,206.310263 C116.984578,200.732303 117.43116,201.632173 116.645258,201.803348 C116.722611,202.14776 124.612916,227.44313 127.820125,228.746189 C128.108908,228.316534 128.455104,229.066197 123.038362,216.939942 C124.974239,216.983939 126.908053,217.109398 128.843929,217.190517 C128.899623,221.23581 129.106241,225.273885 129.140963,229.317116 C128.771734,229.393766 128.337872,229.335677 128.029149,229.579377 C126.627177,231.517296 135.61417,240.095627 139.507926,244.453709 C131.889558,243.334886 124.273252,242.200252 116.664167,241.030558 C116.60091,239.217755 115.936709,221.68712 115.178654,219.996683 C115.127429,220.10805 115.025324,220.33319 114.974443,220.446962 C114.954847,223.710626 115.615954,239.345277 115.480501,241.826623 C94.6905383,242.194065 88.1416984,250.16916 69.8833995,252.42846 C69.9903179,252.470395 70.203811,252.555982 70.3103856,252.597917 C69.4839165,252.393744 68.6436957,252.574543 67.8151638,252.6536 C58.7913857,253.32455 54.839873,252.462833 48.6853593,252.171011 C48.7063305,252.340467 48.7503355,252.679379 48.7713066,252.846429 C56.3738603,253.557252 65.6747325,254.088306 66.2296082,254.405907 C63.6948507,255.459423 61.2621985,256.849788 59.2424371,258.722743 C62.1986802,257.066678 64.8379496,254.829032 75.4359383,252.934423 C114.334995,245.963691 72.4848521,241.075242 134.229731,270.642419 C135.008413,271.007798 134.173005,270.520741 136.014684,271.586974 C72.240418,277.992967 88.5384311,299.848686 53.8569798,296.902967 C64.3109208,300.4148 73.7451832,295.192938 74.5489623,294.897679 C74.5929673,294.400997 75.3032357,294.790781 74.7693311,295.002171 C60.8297117,314.405417 54.2794967,327.586218 34.4507688,337.701341 C33.9378354,338.037848 33.2203474,338.181868 32.9257201,338.771356 C34.2541214,338.835976 44.3814627,333.765353 52.7403526,326.398994 C66.9446897,314.549093 72.5347015,289.074987 107.971458,278.659105 Z M163.610641,137.007852 C165.25189,136.978291 167.313594,138.714443 168.752351,135.870467 C167.572467,135.270668 168.397905,135.622642 167.199456,135.12321 L167.211144,135.111524 C167.143762,135.04656 167.006934,134.919038 166.939551,134.856136 C166.414929,134.756456 165.890307,134.44298 165.479478,134.131909 L165.286957,134.220246 L165.077933,134.097193 L165.071057,133.893021 C157.319299,132.620896 161.199647,125.890084 161.661012,124.602492 C161.730801,124.618647 161.867629,124.651301 161.935012,124.667456 C161.719113,126.215591 160.969308,127.712511 161.122638,129.29055 C161.967672,129.067817 161.13639,129.620526 166.902766,125.969484 L167.146512,125.904521 C167.216301,125.837151 167.355536,125.707223 167.424981,125.642259 L167.399541,125.607543 C167.515742,125.579701 167.745393,125.526424 167.859187,125.498582 L167.89391,125.29441 C168.473538,125.065145 168.958625,124.667112 169.609418,124.370822 C170.215174,132.82335 169.697772,141.320219 168.462881,149.696096 C166.793097,145.488221 165.205478,141.243224 163.610641,137.007852 Z M143.164811,275.718542 C143.245945,276.723592 143.011481,277.72383 143.009418,278.730943 C147.092259,279.189815 141.509122,271.957509 169.195839,281.694535 L169.226093,281.887021 C170.411478,282.126253 178.611193,289.895801 181.21574,291.328101 C182.376372,292.02208 183.678646,292.469953 184.806618,293.219616 C172.584225,295.968037 168.732412,296.01444 156.828024,304.113619 C151.35215,308.260655 137.550734,281.623728 143.164811,275.718542 Z M180.328764,253.173655 C173.697071,244.212071 185.119466,205.949353 187.378505,206.278297 C183.545599,225.865778 180.877108,230.793756 180.433276,246.930588 C180.326357,249.007715 180.542257,251.105809 180.328764,253.173655 Z M185.969313,225.534428 C187.69651,228.175607 189.170334,230.983836 190.8439,233.662137 C191.103804,233.615734 191.366115,233.573799 191.633239,233.536677 C191.359239,230.487154 190.9601,227.451379 190.72323,224.39945 L191.008918,224.547939 C193.612434,232.539876 192.758118,233.043776 183.956771,255.71481 C182.909933,245.630966 183.896608,235.42613 185.969313,225.534428 Z M217.771186,169.864128 L217.97299,169.72492 L218.172732,169.796758 C222.857891,166.569186 229.837155,165.01177 235.164512,162.175012 L235.389693,162.172606 L235.394163,161.975308 C235.498675,161.963622 235.705292,161.942998 235.809804,161.931312 C236.11337,161.677987 238.613061,160.332305 238.890155,160.320619 L238.899437,160.11404 L239.106054,159.988581 L239.296514,160.076918 C240.360197,159.38122 246.67973,155.734647 247.024207,155.695119 L247.012518,155.48854 L247.209853,155.34452 L247.409594,155.41189 C247.800482,155.1046 251.282723,152.978665 251.648171,152.879672 L251.690113,152.677906 C252.296901,152.451047 253.449282,151.687635 254.399172,151.125302 C254.132391,150.723832 253.879363,150.319956 253.642492,149.906799 C254.552502,149.043363 255.466981,148.18474 256.332986,147.274901 C256.676775,147.486635 265.645547,154.297192 266.008244,154.743346 C270.793446,157.56223 271.547376,159.185984 275.569709,168.719526 C266.450701,163.944506 266.346189,166.742423 264.617961,166.834885 L264.617961,167.039057 L264.408937,167.171391 L264.209196,167.087866 C254.591006,173.948606 267.513353,166.074222 230.055805,170.676005 C228.439652,170.965765 218.029028,171.640153 216.049146,170.966109 C216.599209,170.634071 217.137927,170.18173 217.778406,170.067957 L217.771186,169.864128 Z M276.390677,170.147357 C277.790587,172.521462 279.217999,174.881818 280.60622,177.267609 C278.802702,176.589785 277.010529,175.81228 275.292615,174.960531 C275.190509,174.948844 274.986299,174.925815 274.884193,174.914128 L274.884193,174.712362 C274.269154,174.688988 273.709466,174.329453 273.182781,174.051036 C273.083082,174.039349 272.880934,174.01632 272.781235,174.002227 L272.783641,173.807335 C272.131473,173.758526 271.516091,173.366337 270.935775,173.083108 L270.949526,172.932213 C271.503714,172.672701 274.711267,170.869522 275.541174,170.140139 C275.198073,170.096486 267.583486,169.000005 267.314643,168.782427 C269.684726,167.965394 272.512048,168.016609 274.652135,169.353354 L274.844657,169.26536 L275.056088,169.392882 L275.06537,169.601867 C275.33937,169.601867 275.578304,169.682985 275.787327,169.843161 L275.991538,169.754824 L276.214313,169.875471 L276.221189,170.079644 L276.390677,170.147357 Z M276.244567,163.595625 C283.506769,170.07105 290.546196,178.775528 295.727099,187.038664 C294.696763,186.66263 293.796035,185.983086 292.997413,185.606708 L292.981255,185.404942 C286.930222,184.23181 278.504981,168.024515 276.244567,163.595625 Z M217.299851,172.897497 C218.755455,173.138791 220.243374,172.867249 221.698634,173.069359 C223.31238,173.522044 223.770995,176.486324 225.159559,177.474188 C224.54899,176.070073 223.845597,174.707893 223.255999,173.296561 C223.493213,173.090326 232.299716,172.339976 232.613252,172.31729 C240.292127,171.343175 236.891365,172.031655 238.864371,172.400815 C242.272009,170.65985 243.846563,171.742239 251.508592,171.658026 L251.61998,171.864605 C257.763836,171.881103 257.267405,172.196986 258.142692,172.843876 C263.357974,173.048392 270.567233,175.828091 272.94316,176.826267 L272.964131,177.023565 C284.744067,181.94398 294.49324,189.848268 297.59078,192.911884 C293.5932,197.613347 296.958208,194.076422 290.494628,201.085995 C283.557306,196.167642 269.700884,186.928672 269.141195,186.047019 C268.693925,185.376413 268.652327,184.322554 267.681123,184.318085 C267.579017,184.267214 267.360711,184.197438 267.25173,184.162722 L266.963978,183.979173 C263.912849,181.259625 263.454922,180.173112 262.080109,179.161187 C268.165865,190.068252 286.99176,200.638466 287.793133,200.93785 L287.837138,201.139616 C288.695923,201.566522 289.464292,202.195538 290.220972,202.794306 C284.823138,213.619907 284.015577,224.675461 287.326267,235.734108 C284.000107,232.555688 284.731346,227.099062 259.816602,209.640609 C255.645408,206.972964 259.846511,197.514698 247.894337,198.317295 C248.260129,198.071876 251.506874,196.565675 251.882291,196.51171 L251.891574,196.307538 C251.991272,196.300663 252.195827,196.284165 252.297932,196.27729 C254.315631,194.902392 256.525852,194.936077 267.005577,186.325436 C266.901065,186.220944 266.801366,186.12367 266.70373,186.030864 C265.891356,186.634101 265.055605,187.3188 264.131843,187.692428 L264.145939,187.901413 L263.753675,187.982532 C263.155826,188.487119 258.203199,191.936738 255.805613,193.000221 C259.520599,187.652212 258.852617,183.060741 254.607852,179.423105 C248.859697,191.057834 253.572015,191.98864 253.732565,193.95165 C253.163937,194.155823 252.692602,194.648036 252.088909,194.705782 L252.051779,194.905486 C243.099166,198.053658 243.488679,197.76493 243.488679,197.76493 C243.143514,197.638095 234.223561,192.478104 237.954704,188.862123 C237.973269,188.625296 238.001116,188.400157 238.024494,188.172955 C237.917575,188.381939 237.822689,188.595392 237.736742,188.81572 C237.105201,189.549228 236.954622,190.591057 236.436875,191.41737 C235.624501,190.983246 235.06275,190.196461 234.231812,189.792585 C235.939069,194.037925 238.318777,194.385087 242.337673,198.052627 C238.008336,199.108548 233.683812,200.185437 229.36857,201.301854 C231.226407,198.722546 234.26344,195.445133 235.394507,193.663953 C234.937955,194.030363 228.539351,200.350081 228.198655,200.693806 L227.950096,200.909665 C227.838708,200.912071 227.615933,200.918945 227.504545,200.921351 C222.153123,205.177347 226.598661,201.833252 219.570235,205.809113 L219.352273,206.034252 L218.950727,206.089936 C202.340553,218.519699 209.502713,211.427977 195.505681,228.347125 C195.167392,224.670305 195.368853,221.234091 189.472525,217.132771 C187.959852,216.135283 188.277513,215.470176 189.655764,203.945783 C191.587172,190.552559 208.78385,175.325222 212.669011,173.31959 L212.689982,173.110606 C215.251899,171.860136 215.767239,172.787161 217.299851,172.897497 Z M314.870999,252.683848 C315.107182,222.833785 297.650256,212.558486 299.743244,203.706894 C299.801345,203.737142 299.919608,203.797294 299.980115,203.827541 C300.230737,205.558882 300.35622,207.306377 300.562838,209.044935 C300.757766,209.056622 301.152436,209.077589 301.349771,209.088932 C302.108857,207.23007 302.867944,205.370864 303.596777,203.500316 C303.530426,195.390137 318.867892,243.45794 314.870999,252.683848 Z M306.897153,190.178587 C308.171579,190.204023 309.443599,190.041785 310.720432,190.141465 C311.245055,193.943057 310.441963,197.742244 310.397614,201.546242 C310.348796,201.588177 310.246691,201.673764 310.19581,201.718104 C306.788172,199.27113 306.737979,194.554199 306.897153,190.178587 Z M313.86129,212.967175 C317.130381,216.629902 315.992783,219.206461 315.031205,220.006308 C314.687416,217.652826 314.162793,215.322718 313.86129,212.967175 Z M297.015621,261.243274 C300.208735,265.32294 300.784238,265.597919 306.335745,278.053118 C307.14365,280.139182 306.257361,280.126808 296.265817,294.236353 C298.979001,267.396973 297.008745,264.656802 297.015621,261.243274 Z M308.884254,303.065259 C310.394176,312.172583 301.736534,325.376414 295.773511,332.563348 C295.878366,326.679817 308.540465,303.380111 308.884254,303.065259 Z M308.146139,276.581978 C308.146139,276.581978 304.603735,268.321248 299.190431,261.30377 C297.103631,258.485229 293.306136,255.424707 294.524525,249.90621 L294.756582,249.683477 C294.742487,249.52777 294.712577,249.219449 294.696075,249.066148 C294.387353,249.298162 294.060065,249.502334 293.721089,249.688289 C293.420618,249.338721 280.151731,225.00578 291.021313,203.071691 C292.804891,205.02989 300.164042,213.303337 301.729314,214.970745 C301.67362,215.165636 301.620333,215.36534 301.573922,215.569513 C291.339662,216.104348 285.634137,220.40709 288.01522,230.413597 C288.064039,230.480967 288.163737,230.615363 288.212555,230.680327 C288.969235,227.391571 290.401461,223.933703 293.370424,222.065217 C291.499524,224.390857 289.626217,226.934418 289.240829,229.981535 C290.006791,229.79833 290.601203,229.155222 291.378854,229.039386 L291.369571,228.837276 L291.569313,228.700474 L291.773524,228.774719 C292.50717,228.319971 293.303385,227.795448 294.146013,227.616711 L294.155295,227.414945 L294.368788,227.294297 L294.563717,227.382291 C299.587164,224.200434 299.308007,223.462457 301.982687,218.813584 C302.335415,218.242658 302.542032,217.356192 303.382596,217.40947 C310.638267,235.938967 309.177507,229.767395 308.988423,233.172673 C309.320179,233.601985 309.844801,233.882808 310.084079,234.398051 C311.34441,242.867421 315.412811,259.303981 308.146139,276.581978 Z M294.109227,295.248622 C292.624746,293.575027 290.338548,288.152774 291.265747,285.517439 C287.728844,281.473177 287.801384,275.800348 287.296357,271.063138 C287.691027,271.137382 288.064726,271.292746 288.382731,271.557414 C288.597599,271.643345 288.395108,271.590755 289.042119,271.705903 C285.868945,268.808306 289.646156,257.642073 290.666866,255.970541 C297.293403,253.312176 295.838487,285.366544 295.676218,287.318555 C290.827416,274.223684 291.32866,274.005419 289.232234,272.683111 C293.825257,279.843235 294.911287,286.891649 294.109227,295.248622 Z M265.815035,268.440177 C266.701667,267.16599 267.674247,265.952299 268.607634,264.70836 L268.610041,264.543716 C268.70974,264.546122 268.909481,264.552997 269.00918,264.555403 L269.004711,264.736546 C275.016552,268.544325 280.272057,274.063852 282.953269,278.139393 C279.056419,274.394515 275.968848,272.7467 272.976507,271.051451 L272.774703,271.128102 L272.570492,270.9913 L272.574961,270.787127 C272.574618,270.786784 269.080688,269.381982 265.815035,268.440177 Z M249.120289,268.837178 C249.34994,268.553949 250.071898,268.526108 250.448003,268.653973 C251.41852,267.805661 263.036875,267.920809 263.704857,268.960232 C258.636029,281.564607 256.796414,282.093256 258.725758,301.624023 C250.862269,291.739195 248.690209,289.631477 249.925787,284.161789 C248.804347,284.682532 249.990076,284.249439 246.299843,287.127788 C239.084052,282.066789 234.332886,276.948044 232.126103,273.541391 C232.112351,272.993495 232.887596,273.22104 233.21729,273.039897 C233.040926,272.68483 232.576467,272.705797 232.353691,272.438723 C232.249179,272.436317 232.044969,272.429443 231.940457,272.427037 L231.924299,272.229739 C229.998736,272.318076 226.074726,264.272174 224.479888,262.609923 C226.412671,270.958989 236.733222,283.331007 241.798955,289.668943 C233.605084,296.542057 238.633001,306.624526 242.861951,309.588806 C242.254819,306.756516 240.718769,301.186118 243.658167,296.38085 C242.314295,301.161713 242.643645,306.474319 244.888588,310.934831 C246.678355,306.868571 248.32648,302.73769 250.027893,298.631901 C250.824452,299.414218 256.928085,307.727194 260.678137,318.858367 C260.649603,318.8374 258.557989,317.033534 258.542519,317.020129 C258.444883,316.999161 258.252361,316.955165 258.157131,316.932135 L258.178102,316.732431 C258.178102,316.732431 255.106002,314.767015 248.152523,315.377126 C245.85773,315.576486 230.309865,302.104206 229.159546,301.080594 C221.975728,294.684914 212.429734,294.617544 211.92402,279.626689 C212.012374,276.036487 210.995445,272.255518 212.513618,268.834772 C212.673824,268.286876 213.19604,267.86925 213.244858,267.303136 C206.742086,276.405303 213.109061,279.746305 209.324286,288.167554 C208.594078,287.964413 207.964256,287.643031 207.116816,287.278683 L207.091376,287.072104 L206.8686,287.109227 C180.04892,270.346473 197.485906,244.587075 198.003653,231.132325 C198.480832,227.054378 205.507539,219.043879 211.304856,214.083248 C216.467881,219.95303 222.659524,220.540799 223.886164,220.370312 C223.879288,220.419121 223.870006,220.511926 223.862786,220.558329 C225.090801,220.653541 226.321223,220.713693 227.548894,220.827465 C227.713569,220.586171 227.848334,220.330784 227.931875,220.052367 C227.184134,219.608619 221.166792,215.909456 220.552441,215.396619 C225.114179,216.360766 227.35259,219.144247 228.660708,220.008026 C227.763075,211.698488 221.667693,211.531781 213.375154,212.669509 C213.838238,211.992716 215.828434,210.436332 216.172223,210.481016 L216.151252,210.281312 C216.246481,210.257939 216.432127,210.209473 216.527357,210.1861 L216.543515,210.065453 C217.664612,209.436437 218.662975,208.531411 219.862799,208.083538 C219.927776,208.016168 220.060134,207.881771 220.127517,207.814401 L220.097264,207.779685 C220.217934,207.758718 220.457211,207.71919 220.575474,207.698566 L220.566192,207.487519 L220.767996,207.350717 L220.969801,207.427368 C226.074038,204.319755 234.175086,201.697825 237.188742,201.070528 C237.177053,201.019313 237.15402,200.917227 237.142331,200.866355 C238.495485,200.928913 239.767849,200.225653 241.121003,200.135253 C241.109314,200.086445 241.083873,199.989171 241.070122,199.940362 C245.120302,200.458354 240.478461,197.471733 250.255481,204.282633 C252.562306,203.608933 252.830462,202.511764 255.360063,203.994935 C254.32457,205.189034 253.421779,205.448202 252.516582,205.765804 C256.121556,208.652058 269.820866,216.257305 278.914434,226.864642 C278.861146,227.092187 278.756634,227.300828 278.624276,227.498126 C275.862617,226.954698 269.978666,221.56991 266.356159,220.895179 C266.337594,221.04848 266.300465,221.357145 266.284307,221.510102 C267.273045,222.00919 268.264533,222.512746 269.232299,223.055831 C269.250864,223.17201 269.287993,223.40643 269.304151,223.522265 L268.995429,223.468988 L268.995429,223.633632 C268.886447,223.665942 268.663328,223.73125 268.554347,223.761154 L268.563629,223.774903 C263.529525,225.730695 264.864458,226.297496 265.214091,232.034945 C265.824661,230.663484 266.114819,229.15694 266.578934,227.72739 L266.961916,227.411851 C266.676227,229.010857 266.249241,230.58924 266.024059,232.197527 C268.831097,230.56896 270.450344,227.138934 271.160956,223.951577 C271.505433,224.206964 273.989654,226.046234 274.817154,226.504419 L274.819561,226.706529 C275.669064,227.049909 276.488657,227.711579 277.182768,228.338188 C269.232299,234.97207 274.956733,241.787095 277.37082,243.340042 L277.698108,243.444534 C277.596002,243.10081 275.368592,236.185761 276.906705,235.022254 C277.419638,237.958348 277.870002,240.905786 278.357495,243.846005 C278.754572,243.885533 279.158524,243.927124 279.566945,243.964246 C280.465267,240.383324 281.3103,236.78831 282.150521,233.193296 C286.762797,236.612667 294.009528,249.945051 291.264028,252.700003 L291.291875,252.876333 C291.194239,252.88802 290.997248,252.91105 290.897205,252.922736 L290.876234,252.744 C289.485263,252.086455 287.903145,250.966257 286.981103,250.599503 L286.955662,250.402205 C285.466711,249.989048 280.771583,246.467935 278.849801,245.470446 C273.230911,242.340835 268.75787,235.628584 266.333469,234.170161 C271.729928,243.833287 284.062676,250.326585 284.407153,250.567193 C284.506852,250.583348 284.706594,250.618408 284.806292,250.634563 L284.803886,250.834266 C285.175178,250.76449 285.467743,251.06628 285.767183,251.245017 C283.223143,251.44919 280.662602,251.115089 278.113749,251.100997 L278.204165,251.091716 L278.011643,250.778583 L278.206572,250.780989 C278.208978,250.407361 278.257796,250.038201 278.334117,249.680727 C278.227199,249.745691 278.011299,249.875619 277.902318,249.942989 L277.972107,250.147161 L277.825997,250.346865 L277.616973,250.333116 C277.537214,250.850078 274.025408,255.71756 268.998179,263.424893 C268.834535,263.332775 264.662654,260.500142 264.253545,260.233755 C265.356076,259.200863 266.637379,258.372487 267.698312,257.290787 C267.515072,257.019244 267.507853,256.747702 267.672872,256.473754 C265.936736,254.742414 262.946458,254.609048 260.184456,256.817134 C258.743979,257.655822 256.74347,254.633453 248.619732,249.100177 C247.948999,249.686914 247.858239,249.440464 259.100489,257.87993 C258.824082,258.557755 258.531861,259.230767 258.355498,259.945371 C260.010499,259.734324 261.825705,259.975618 263.281309,260.792308 C263.383414,260.803994 263.587625,260.827024 263.68973,260.83871 L263.692137,261.038414 C265.242626,261.602466 266.51499,262.846405 267.835484,263.839769 C267.367587,264.827633 265.931579,267.103776 264.859645,267.137805 L264.822516,267.332697 C261.183507,268.571479 256.121556,266.417358 248.134646,268.892174 C248.458839,268.839585 248.785782,268.821023 249.120289,268.837178 Z M262.286727,323.579422 C262.890764,323.725161 262.780752,330.901784 262.755655,331.268538 C262.720932,331.256852 262.655956,331.235884 262.623296,331.226604 C260.819778,329.504544 259.190218,327.559751 257.493274,325.714639 C258.737447,325.893375 259.937615,326.480457 261.197946,326.448147 C261.230263,326.411024 261.295583,326.339186 261.327899,326.304126 C261.323429,326.176604 261.314147,325.918811 261.309334,325.791289 C261.264641,325.720138 255.464231,320.09165 255.404068,320.033217 C259.611016,321.97251 261.159098,325.158492 262.493344,326.055957 C262.407397,325.2293 262.214531,324.407798 262.286727,323.579422 Z M214.621046,291.426062 C214.003601,291.158301 210.393471,289.078768 210.115345,288.870814 C210.521704,287.561912 210.913967,286.250603 211.329265,284.948575 C211.554447,285.415009 213.169224,288.639144 214.621046,291.426062 Z M202.364618,304.455281 C203.671361,303.032606 204.532553,301.277892 205.823481,299.850748 C205.875737,300.702154 206.16452,310.926925 206.118452,311.782112 C206.088199,311.768363 206.028036,311.740521 205.997782,311.726428 C204.222111,309.384634 201.80768,307.138051 201.71967,303.986441 C201.881938,304.10262 202.204413,304.33704 202.364618,304.455281 Z M199.992473,303.060447 C198.62763,300.985727 197.448433,298.780734 196.20873,296.629363 C198.239836,296.866189 200.254784,297.186196 202.281421,297.44399 C201.666039,299.361285 200.693459,301.164463 199.992473,303.060447 Z M191.946775,270.781971 C191.853952,270.770285 191.672775,270.749661 191.582359,270.737975 C186.902701,264.045316 186.427584,263.81502 186.447524,262.66595 C187.069438,250.985849 194.675086,234.348211 197.262443,231.782308 C195.764554,250.084603 187.610219,243.055438 191.946775,270.781971 Z M192.624384,279.77999 C188.079491,278.953677 187.304246,276.892361 187.013744,272.223208 C188.975405,274.664683 190.765172,277.25499 192.624384,279.77999 Z M248.105767,201.627361 C247.042771,200.794173 245.905173,200.051385 244.893057,199.153233 C245.682397,198.967621 246.455235,198.723921 247.239762,198.514936 C248.596011,198.961091 249.513584,199.437493 251.873009,200.30196 C251.849631,200.448043 251.805626,200.740552 251.782592,200.886979 C250.849892,200.726803 248.878949,199.586669 247.632026,199.232289 C247.764728,200.03523 247.95725,200.826827 248.105767,201.627361 Z M269.763454,263.482983 C270.292545,263.039578 270.810292,262.445622 271.543938,262.385127 C272.195418,261.854416 274.830562,262.266542 276.901548,262.148301 C277.618692,261.229181 278.607774,260.451677 279.705836,260.08286 C279.763937,260.011022 279.877731,259.867001 279.935487,259.795163 C280.06097,259.755635 280.316062,259.674516 280.443952,259.632581 L280.478674,259.430815 C281.176223,259.162366 285.745868,256.403978 286.019524,256.411539 L286.012649,256.207367 L286.214453,256.070565 L286.414194,256.142403 C287.108305,255.543635 288.039286,255.211597 288.793559,254.659232 C283.903846,253.39467 280.144855,255.384491 278.814391,255.643315 C279.575884,255.176881 280.313999,254.675387 281.107809,254.262574 L281.177598,254.290416 C282.902388,253.556908 284.824169,253.211121 286.693007,253.413231 C291.065662,254.333725 292.08259,252.36659 286.488797,268.041456 C285.603883,269.320799 287.339675,277.671928 288.000094,282.203248 C287.603017,282.070914 287.435936,281.702097 287.192189,281.416462 C278.115468,269.790326 269.765516,263.485389 269.763454,263.482983 Z M305.546405,186.326123 C305.611382,186.351559 305.736865,186.400368 305.799434,186.425804 C305.878506,189.867517 305.98508,193.309573 306.071028,196.753692 C301.439156,188.965927 301.382431,189.499388 305.546405,186.326123 Z M301.207786,188.347567 C301.114963,187.242837 300.824805,186.159073 300.81071,185.049531 L301.137997,185.095934 C301.337738,185.657579 301.370055,186.265628 301.535073,186.843429 C302.74693,186.12642 303.793768,185.186333 304.998405,184.466918 C303.795831,185.804006 302.537906,187.124252 301.207786,188.347567 Z M300.852652,196.386938 L301.035891,196.361503 C301.056863,196.45912 301.100868,196.651606 301.124245,196.749224 L300.957164,196.772597 C295.671405,200.298866 296.46659,201.150615 298.666153,208.383953 C296.516095,206.341198 293.156588,202.440613 292.171288,201.216954 C293.84004,197.770085 293.241503,197.953634 296.9974,194.946045 C297.470798,194.567605 297.819056,193.864688 298.459879,193.780819 C298.64415,194.025208 300.742639,196.122614 300.852652,196.386938 Z M185.463255,288.218769 L185.486633,288.413661 C186.754184,288.947465 187.954008,289.810901 188.943089,290.778485 C184.056814,289.701596 179.198385,287.719681 175.491307,284.275562 C180.78291,285.739141 184.807993,287.969569 185.463255,288.218769 Z M199.637339,317.461471 C199.532827,317.459065 199.319334,317.449784 199.214822,317.445316 L199.200727,317.248018 C198.550621,317.164493 197.866137,316.865109 197.318137,316.531009 C197.213625,316.524134 197.007008,316.512448 196.904903,316.507635 L196.898027,316.310338 C196.898027,316.310338 194.260476,315.33416 192.68936,315.122082 C193.000489,315.091834 193.322963,315.080148 193.622404,314.961907 C193.622404,314.961907 191.333799,314.707207 185.177566,315.453776 C185.267983,314.796919 185.397935,314.154154 185.4746,313.499703 C179.575522,311.820265 162.934063,310.35153 162.393971,308.700278 C163.024136,305.514984 163.57523,304.947495 162.449665,303.796361 C160.08577,302.618761 159.948598,307.107803 159.893936,307.451871 C159.025524,307.367315 158.849504,306.982343 156.983073,306.30555 L156.952819,306.098971 L156.535116,306.103784 C156.765111,305.523233 162.469604,301.786948 162.981163,301.879754 L163.006603,301.68005 C163.350736,301.540842 172.768496,296.900218 180.792192,296.214487 C180.776034,296.165679 180.738904,296.065998 180.722403,296.01719 C182.071088,296.114807 183.414959,295.748053 184.768457,295.710931 C184.640912,295.632218 184.513022,295.55763 184.389945,295.490604 C191.909646,296.871345 189.185804,291.680074 194.722185,301.805509 C195.112042,302.325221 195.274654,303.040168 195.750459,303.47876 C196.358622,303.529631 196.920373,303.11888 197.528536,303.049448 C199.158784,311.622967 205.967185,317.600679 206.966924,320.265575 C206.673328,320.162114 199.839487,317.699328 199.637339,317.461471 Z M206.967955,300.535447 C207.531426,300.806302 207.872465,301.03866 210.089905,302.621855 C207.281835,304.656704 208.008949,305.290188 207.181448,309.113435 C207.135037,306.253991 207.039807,303.394891 206.967955,300.535447 Z M214.491094,325.735262 C215.120228,325.182897 215.91885,324.869764 216.543171,324.308118 C212.842625,320.607924 207.639032,315.268509 207.302118,310.032554 C207.654846,310.241539 207.996229,310.466678 208.335205,310.712441 C208.817885,309.519374 209.091885,308.254468 209.484148,307.031496 C209.544655,307.040776 209.667388,307.056932 209.727895,307.06415 C209.010751,313.141886 208.920678,312.35235 209.83,312.603957 C211.420025,310.431618 213.093591,308.314963 214.648893,306.119595 C221.915908,310.433337 216.212446,310.36906 220.614666,312.915027 C221.55493,313.42099 222.680495,313.267689 223.651012,312.926714 C223.047319,314.555968 222.594892,316.238499 222.074739,317.898001 C220.412518,314.349733 217.158554,314.997998 214.035917,315.222106 C214.129428,317.325356 219.52348,319.97994 221.670787,321.072984 C221.404006,320.325727 221.062624,319.61078 220.776935,318.875209 C220.904481,318.831213 221.162323,318.745282 221.292275,318.703347 C225.156809,328.777223 225.87911,330.20093 225.87911,330.20093 C219.670621,326.247068 218.9356,327.883884 214.491094,325.735262 Z M227.379062,330.163464 C226.516839,328.771036 225.266821,327.430511 224.217577,324.405392 L224.233735,324.147599 L224.043276,324.145193 C223.952172,323.121925 222.23907,319.336831 223.759993,312.942525 C224.632874,313.583228 225.287449,314.476568 226.120794,315.172953 C225.630894,316.454014 224.375376,317.338417 223.82497,318.621884 C223.701893,319.271524 223.857286,320.332257 224.709539,320.339132 C230.148284,321.185725 223.917449,310.31269 247.65781,337.056171 C249.08316,338.720141 250.420156,340.479322 251.617917,342.312749 C245.35236,337.900702 242.34558,335.333767 233.771822,332.430671 C240.004375,330.870505 239.197502,330.939938 239.349801,330.265207 C237.369575,329.947261 235.366316,329.766119 233.381621,329.494576 L233.228291,329.318246 C235.087503,329.278717 236.944652,329.237127 238.804208,329.195192 C238.894624,329.164945 239.073394,329.102387 239.161748,329.072139 C238.72548,327.955722 237.634293,327.296802 236.603613,326.818682 C233.244449,326.503142 233.663872,327.348705 232.344065,327.454572 L232.341659,327.656682 C232.239553,327.665962 232.037749,327.688992 231.9353,327.700678 C231.629328,327.9186 227.912623,330.028724 227.379062,330.163464 Z M230.501012,333.032188 C244.141534,334.734656 261.571301,350.946076 264.185474,360.887274 C250.666309,347.289191 244.306897,342.607321 230.501012,333.032188 Z M260.578095,301.431193 C262.808942,304.032844 264.798107,306.847947 266.949883,309.52178 C267.261012,309.438255 267.555639,309.315201 267.836515,309.155026 C267.741629,308.809239 265.847351,301.679362 265.912327,301.069252 C266.395007,300.914576 268.832816,309.814977 268.94386,310.287598 C268.70527,310.802497 266.260586,314.266896 265.868322,314.64843 C263.533306,310.498988 261.606368,306.093816 260.578095,301.431193 Z M274.081102,338.5115 C273.997561,338.516312 273.830479,338.523187 273.746939,338.527655 C271.069509,333.677016 273.03392,328.825689 276.882983,324.925103 C275.745385,327.278585 274.552437,329.610755 273.338517,331.927114 C273.380459,332.015452 273.466063,332.189376 273.510412,332.277713 C273.6799,332.273245 274.021282,332.263621 274.192833,332.259152 L274.148828,332.159128 C276.625829,330.559091 276.800818,330.064815 277.37082,330.265207 C276.323638,333.032188 275.153724,335.754486 274.081102,338.5115 Z M271.980206,330.462848 C266.154355,316.196565 266.969135,316.770585 267.388558,316.036389 C269.623875,312.289105 273.056266,310.452242 275.420161,310.275911 C275.826519,309.851068 275.810017,310.88396 275.399189,310.482489 C273.268384,312.12343 270.837795,313.402085 268.627918,314.957094 C268.374889,315.41906 268.321602,315.957333 268.182367,316.465701 C273.804695,315.611546 279.401239,314.602027 285.030443,313.780526 C282.535221,323.221949 272.625498,314.536032 271.980206,330.462848 Z M285.715615,312.603957 L285.727304,312.782693 C285.627605,312.7851 285.427863,312.791974 285.328164,312.79438 L285.325758,312.615643 C281.33299,309.324482 282.250907,305.729468 276.22394,306.418979 L276.189217,306.453695 C275.537049,306.518659 274.998331,306.999186 274.359915,307.027028 L274.345819,307.226731 C272.502766,308.052701 272.15382,309.074594 270.89177,309.336512 C273.301388,306.363639 275.775639,303.441638 278.19007,300.475296 C278.264328,300.097199 277.788524,299.957647 277.514524,299.872059 C276.694243,300.878484 269.66238,309.624897 269.18795,309.939749 C269.321684,307.372814 273.179686,301.602368 266.599562,296.680578 C265.671331,295.989692 261.682002,293.21996 259.282697,293.178369 C258.535987,285.132124 261.062837,275.408159 265.420021,269.250335 C267.221476,269.638056 269.080688,270.153299 270.694091,271.018798 L270.88455,270.92118 L271.10045,271.034953 L271.119014,271.241531 C274.298033,271.563257 284.21635,280.280797 286.091376,283.036092 C285.264907,284.581821 284.42228,286.12755 283.726107,287.738242 C284.4876,287.654717 285.258031,287.698714 286.0264,287.694246 C286.639376,287.362208 287.36099,287.072104 288.076071,287.216125 C289.941815,287.786708 292.442194,295.331116 292.753323,297.054206 C293.275539,300.019517 291.550748,302.481272 285.715615,312.603957 Z M365.549304,344.815063 C360.218509,342.729343 356.187925,341.894436 355.047576,342.134356 C355.063734,342.085547 355.100864,341.988273 355.117366,341.939464 C344.180057,340.776644 336.674796,345.068731 335.885456,345.091073 L335.869298,345.293183 C335.764786,345.295589 335.558168,345.30487 335.453657,345.309338 C333.08598,346.530248 330.69974,347.822995 328.415605,349.231578 C329.602021,347.033117 334.910126,338.929125 337.317681,338.553434 C337.370969,338.476784 337.477887,338.323826 337.531174,338.247176 C337.649438,338.205241 337.888715,338.119654 338.006979,338.075314 L338.044108,337.878016 C338.273759,337.791397 339.884755,337.02008 340.362966,336.738569 C340.706411,336.04459 339.796745,336.097867 339.404138,336.232607 C334.167197,336.352567 327.623858,339.958924 323.675096,346.989807 C319.468835,354.446909 309.542267,359.888755 309.197103,359.926221 L309.192289,360.130393 C309.094653,360.14208 308.897662,360.167515 308.800026,360.179202 C308.800026,360.179202 293.38005,371.03127 293.379707,371.031614 C293.328482,371.108265 293.221907,371.25916 293.16862,371.33581 L292.994663,371.233724 L293.01804,371.054987 C292.825519,369.785613 292.894964,368.397654 293.672615,367.351013 C293.677084,367.24652 293.69118,367.037536 293.695993,366.930981 L293.893328,366.924107 C293.848635,366.369679 296.457651,360.846715 297.941789,357.125554 C298.244323,357.700261 299.851882,363.729876 299.959144,364.155406 C300.135508,364.169499 300.486173,364.192529 300.662536,364.204215 C301.291671,361.233405 301.795322,358.225816 302.572973,355.294534 C303.055653,358.488078 302.115733,361.642093 301.075771,364.631465 C303.812677,363.229757 306.080654,360.502647 306.32887,357.346225 C306.859336,349.468061 297.191641,349.583896 308.557311,337.544603 C308.9011,337.20191 310.037667,335.726301 312.698595,334.214257 C314.762018,333.187208 318.970341,329.746183 318.98478,329.742058 L319.008158,329.53548 C347.171023,316.10479 362.085972,341.110744 365.549304,344.815063 Z M338.525069,288.26036 C333.361356,285.781075 323.919186,300.430955 316.224497,305.822273 C320.137849,284.969542 318.314047,287.455701 324.43487,283.688137 C324.697181,283.546523 324.922363,283.286667 325.252057,283.309697 L325.277497,283.10793 C337.8093,277.756484 344.251221,280.088655 345.403259,280.905344 C338.253475,285.641523 337.895935,285.253458 338.525069,288.26036 Z M317.888437,233.221138 C317.962695,229.243215 318.046236,225.265292 318.174125,221.289775 C318.401714,221.268808 318.633771,221.252653 318.872705,221.240966 C320.476825,224.560313 318.857922,228.157733 318.631365,233.172329 C318.445719,233.184016 318.074426,233.207389 317.888437,233.221138 Z M328.79171,185.678547 C332.255042,190.128403 330.285474,197.565569 325.681106,200.302303 C325.344536,195.753454 324.662114,191.227634 324.295291,186.688065 C324.967743,187.520566 328.406666,193.095433 328.754581,193.741291 C329.112121,193.759852 329.478945,193.697294 329.773572,193.469749 C329.432533,190.874973 329.105246,188.275385 328.79171,185.678547 Z M328.478518,245.020511 C328.571341,245.048353 328.754581,245.099568 328.847748,245.125003 C329.270265,246.563834 328.942977,248.385917 330.191619,249.457994 C327.339545,255.867767 323.130534,260.464394 321.122461,261.733081 C321.008667,255.629223 323.234702,249.850183 324.174965,243.887939 C325.667698,246.215641 327.090641,248.594558 328.657288,250.871389 C328.666227,248.919721 328.526992,246.965304 328.478518,245.020511 Z M341.433525,265.594826 C341.319731,265.615793 341.09008,265.65979 340.976286,265.680757 L340.985568,265.89421 L340.785827,266.035824 L340.588492,265.963986 C338.783598,267.239891 329.632618,272.938499 328.935414,273.295628 C336.69336,263.546915 339.837656,259.978368 341.948521,261.514816 C342.702451,264.927313 342.514742,265.093332 341.679335,265.276881 C341.611952,265.348719 341.47753,265.49274 341.412554,265.564578 L341.433525,265.594826 Z M374.634964,262.937492 L374.607117,263.139602 C374.128219,263.341712 367.268938,267.975461 366.986343,268.041113 L366.956089,268.243223 C366.627083,268.378306 362.2754,271.090636 361.853914,271.360116 C360.60149,272.384759 360.528951,273.822214 360.932216,275.389254 C360.571237,275.00772 360.208196,274.867137 359.864406,274.748552 L359.834153,274.551254 C352.217848,274.001638 351.461855,279.877608 343.898494,279.562069 C339.516213,279.610534 337.180166,275.690013 323.171788,282.920257 C321.871578,281.656726 341.310105,267.687764 343.132531,267.556117 L343.134938,267.347133 L343.341555,267.212393 L343.536484,267.291106 C343.949718,266.989316 344.453369,266.622562 344.980398,266.613281 L344.982805,266.413577 C345.082504,266.401891 345.282245,266.381267 345.38435,266.369581 C347.585632,265.133204 352.901644,262.791409 362.020996,260.852803 C366.640491,259.986961 371.401283,260.887519 375.865042,262.145551 C375.049918,262.747412 375.346608,262.564207 374.634964,262.937492 Z M465.147089,260.00621 C465.024013,260.084923 464.777859,260.24063 464.654783,260.31728 C464.310994,260.142325 448.044953,251.790852 447.81152,251.435441 C452.433078,250.824986 457.036415,250.049887 461.660379,249.467274 C462.765318,252.997324 464.067591,256.466879 465.147089,260.00621 Z M397.92668,213.171347 C398.098575,213.282714 398.244685,213.42914 398.367762,213.605471 C396.882249,214.461689 395.356856,215.248474 393.820463,216.002949 C393.704262,215.729001 393.604563,215.464677 393.502458,215.200009 C394.992784,214.5569 396.462139,213.870139 397.92668,213.171347 Z M374.825423,231.705657 C375.856103,230.034469 377.724598,229.206093 379.21733,228.024712 C387.301189,221.293212 393.61969,213.445639 408.328709,212.704569 C442.640931,213.789364 461.431072,246.972866 461.210015,248.192744 C440.224093,257.51077 432.549,234.943885 387.200115,256.58512 C390.020217,252.001898 400.159247,240.683396 405.276205,230.215611 C402.610464,230.857345 393.898503,247.692969 389.725934,247.473673 C388.637153,248.137404 388.447038,249.501991 387.771492,250.48848 C385.872745,253.586812 382.613623,255.417832 380.155187,258.003327 C379.767737,258.416484 379.138602,258.272464 378.641827,258.286556 C367.394421,257.456462 358.03201,258.332272 345.711982,263.606036 C345.535961,262.979426 345.098318,263.023079 342.241774,261.401387 C344.165962,260.206945 349.093836,260.513203 352.643459,259.235923 C351.085062,259.257578 340.465071,260.21107 340.115438,260.254723 C346.76432,253.453103 368.339841,236.097768 369.53554,235.533029 C372.789504,235.812133 373.024312,234.592599 374.825423,231.705657 Z M354.251704,229.967442 L354.493044,229.946475 L354.483762,229.744365 C354.583461,229.725804 354.785609,229.691088 354.885308,229.672527 C359.296123,226.78421 366.93615,223.899331 372.346016,222.786351 C371.236265,223.566262 369.973527,224.10694 368.870995,224.9006 L368.608684,224.863478 L368.587713,225.072462 C366.929274,225.8345 366.008263,226.685905 364.669204,227.186712 L364.643763,227.388822 C363.601395,227.838757 363.512353,228.099644 363.028298,228.133672 L362.995638,228.333376 C362.095598,228.666789 360.095433,230.138961 358.408803,230.907185 L358.376487,231.106889 C352.711873,233.434591 340.118188,243.641145 335.441968,247.617349 C336.57991,245.572189 343.735538,236.336313 354.251704,229.967442 Z M339.469802,238.28523 C338.959275,233.109771 338.57148,227.918157 337.993571,222.749573 C337.912437,222.80285 337.747418,222.907342 337.666284,222.958557 C338.108053,225.61486 339.456394,240.344484 330.574601,249.017339 C332.895521,238.069028 324.171871,239.965356 324.806162,236.429118 C326.090215,227.695767 334.789456,217.303602 337.691724,216.242181 C337.977069,216.961597 337.621935,218.184912 338.506504,218.486358 C338.645739,218.103449 338.708309,217.637015 339.070662,217.390908 C339.049691,217.88759 339.033533,218.386678 339.082351,218.887828 C341.159182,218.139884 343.297206,214.549682 344.203091,212.521708 C345.069096,211.498096 346.450097,211.159528 347.587695,210.521231 C349.906209,217.385065 346.031362,231.64688 339.469802,238.28523 Z M347.735868,209.021562 C337.00999,215.181448 337.378876,213.386175 327.559226,224.840448 C329.441815,217.743226 332.31108,210.91514 335.890269,204.507428 C339.172424,205.205877 342.471081,205.848985 345.737078,206.619271 C345.980825,206.370759 346.215289,206.020503 346.045801,205.66303 C344.755216,204.674479 343.41822,203.741267 342.171641,202.699438 C344.767249,202.88333 347.333291,205.065293 347.735868,209.021562 Z M345.528398,202.51417 C344.915422,201.495371 343.987191,200.748114 343.051741,200.054134 C342.949636,200.042448 342.747488,200.017012 342.647789,200.005326 L342.647789,199.803216 C341.443151,199.517581 340.228888,199.120923 338.961681,199.243976 C338.962369,199.243288 341.501252,195.643462 341.828539,195.154686 C345.932007,202.59254 345.978074,202.501796 345.528398,202.51417 Z M358.738841,166.758922 C355.908081,165.059892 353.951233,164.332227 351.923564,167.046619 C353.753554,169.924624 357.189727,168.888295 357.784826,168.819893 C357.817142,168.945353 357.882118,169.193522 357.917185,169.318981 C355.96515,171.888322 354.200824,174.598933 352.213722,177.138025 L352.255321,177.240111 C347.420614,183.402747 347.6262,184.360707 346.723753,184.021795 C346.793542,183.063147 347.278629,182.174276 347.352887,181.206691 C348.172481,175.762096 345.514303,170.635102 345.29634,165.259939 C345.272963,165.294655 345.228958,165.364431 345.207987,165.399148 C345.207987,165.399491 345.57481,176.935915 345.57481,176.936259 C340.402845,175.950113 338.827603,180.782879 340.663094,185.780977 C340.749041,185.776508 340.918529,185.766884 341.00207,185.760009 C341.039199,185.739042 341.113458,185.692639 341.150587,185.671672 C342.218396,184.52982 343.532358,183.619981 344.69299,182.564059 C347.069261,179.561283 340.363653,194.853927 340.756261,190.714797 C340.24539,189.387333 340.073839,187.873915 339.166236,186.736874 C339.451925,190.035942 341.220376,190.911064 338.660178,194.309811 C338.283385,194.937452 332.320362,202.939701 327.717713,213.927885 C327.195497,214.986212 326.937655,216.174468 326.273798,217.156145 C326.271392,216.861916 325.960606,204.908899 325.916257,204.396062 C326.163442,202.381836 332.549326,196.661918 332.562046,187.249711 C332.423499,180.361817 323.88412,178.742187 323.288333,179.24265 C322.578752,178.405681 320.167759,169.851067 324.409429,162.994451 C327.977961,157.197195 334.127662,150.901538 339.384198,147.641999 L339.344662,147.590784 C358.571759,134.853387 357.570645,131.344991 365.561337,131.207845 L365.475389,131.488668 C363.44669,132.029347 361.338918,132.430817 359.38207,133.150232 C363.120777,135.50062 363.730316,135.440812 369.338205,134.108879 C369.101334,144.299966 362.360316,162.614636 358.738841,166.758922 Z M328.457547,147.09204 C328.617753,146.962112 328.821963,146.948019 329.06571,147.052511 C328.339283,150.770579 327.113331,154.511676 324.792067,157.561199 C324.629455,157.463581 324.302167,157.271095 324.139899,157.175884 C325.655665,153.917376 326.923216,150.526534 328.462016,147.286588 L328.457547,147.09204 Z M321.061954,112.432241 L321.308107,112.397524 L321.161997,112.307125 C327.455745,94.0842293 337.513297,83.227005 351.805301,73.5628483 C359.836216,88.7076914 370.015813,104.630383 368.725228,117.6871 C368.980664,117.837995 369.252257,117.993359 369.52832,118.141847 C369.874172,121.37492 369.799913,124.640302 369.92299,127.889529 C366.359959,126.954942 364.580162,127.727291 361.691646,129.938814 C362.122757,128.741966 366.248227,122.56455 367.218744,120.685408 C367.218744,120.685408 360.741069,129.32561 357.522858,132.278203 C349.80376,139.65728 333.002784,148.210519 328.885221,153.75995 C328.569622,154.112611 328.478862,154.941331 327.840789,154.709317 C328.648694,151.842999 329.667685,149.027896 330.340824,146.13133 C324.111708,144.091669 324.204875,149.892019 319.231277,161.147276 C314.613501,141.768779 316.498153,127.25742 321.061954,112.432241 Z M317.101847,177.729575 C317.708291,178.335905 322.409952,205.829393 317.835493,212.259446 C317.539147,211.915034 314.742766,208.435168 313.71518,206.36904 C311.333065,201.725323 315.282858,179.840043 317.101847,177.729575 Z M315.065927,166.900536 C315.005421,167.96127 315.105463,169.024066 315.093774,170.087205 C314.986856,171.410201 316.34276,172.482277 315.885177,173.828302 C311.124041,192.550286 311.974231,190.192336 307.027105,189.426862 C306.395565,187.089879 306.80433,184.564536 308.008967,182.480534 C307.811632,182.162589 307.282541,181.881766 307.602608,181.471016 C311.415918,171.727802 311.968731,170.120547 313.714492,167.392749 C314.125664,167.181359 314.580841,166.784357 315.065927,166.900536 Z M307.110646,122.026621 C305.311597,120.360245 303.584744,118.617218 301.790165,116.946374 C303.672411,117.324127 306.473949,120.382587 307.110646,122.026621 Z M306.885808,123.344805 C307.087612,123.105916 307.310731,122.87837 307.56376,122.685885 C308.270247,124.12334 308.305657,133.723564 308.278842,134.366673 C307.97115,134.260118 301.211568,122.089179 301.055144,121.803888 C303.006835,122.284415 304.935836,122.852935 306.885808,123.344805 Z M279.979492,102.280683 C293.983744,113.542814 313.620294,154.969173 312.456911,158.988687 L312.647371,158.991093 C313.057167,163.492852 316.295318,163.455386 312.1946,169.235456 C311.195205,170.48627 308.78043,174.983904 305.235276,174.740547 L305.2284,174.937845 C305.128702,174.947125 304.92896,174.963281 304.829261,174.972561 C304.185,175.480242 298.380464,177.86019 299.615698,185.425565 C283.885625,163.695649 285.34776,167.477306 278.452381,160.053889 C277.087882,158.517097 261.809204,127.037436 279.979492,102.280683 Z M269.522114,115.061733 C269.215797,115.191661 268.916357,115.3264 268.618979,115.468015 C270.418028,104.997481 274.861503,97.7366453 275.085997,96.798965 C275.085997,96.7993087 277.497678,100.67927 277.497678,100.67927 C277.583626,100.456537 277.676449,100.23346 277.773741,100.013132 C278.245076,100.556217 278.894838,100.990341 279.259254,101.605264 C269.154259,120.653786 265.796127,130.510084 275.809674,157.48008 C276.362143,157.691127 275.389563,158.069567 275.614745,157.528889 C272.046214,156.21208 270.909647,150.660931 270.584422,149.55895 C263.918694,125.818933 269.465045,115.405801 269.522114,115.061733 Z M268.842099,151.334287 L269.018462,151.3226 C269.027745,151.42228 269.048716,151.62439 269.057998,151.726476 L268.879228,151.731288 C268.985459,152.793741 267.628523,151.224639 258.691036,145.081939 C259.251756,144.099918 259.006978,143.550646 262.523597,140.424129 C263.024154,141.273128 268.532345,150.579812 268.842099,151.334287 Z M260.037314,142.257555 C259.64952,143.218265 258.586524,143.550303 257.864567,144.202348 C256.611111,143.299384 255.445666,142.27371 254.266469,141.280346 C255.907719,140.291795 257.634572,139.453795 259.280634,138.469712 C259.243505,138.219137 259.208782,137.970624 259.182998,137.726923 C257.08004,137.592183 254.972268,137.636524 252.866903,137.557467 C255.011804,136.199755 257.808873,136.596757 260.079256,137.487691 C263.075723,138.534332 260.207834,141.913831 260.037314,142.257555 Z M259.074017,136.51117 C257.597786,136.164008 258.150943,134.334706 252.096128,135.281324 L252.086846,135.487902 C251.98921,135.497183 251.791875,135.515744 251.692176,135.525024 C250.937902,136.274687 249.389476,136.673751 248.558538,135.998333 C248.463308,135.97496 248.272849,135.928557 248.177963,135.905527 L248.201341,135.705823 C247.407531,135.299541 246.815527,134.390046 246.251368,133.670287 C246.478957,133.512518 246.729579,133.408025 247.003579,133.354748 L247.045178,133.15745 C247.506887,133.003462 251.481089,130.748629 253.333769,129.61812 C253.677558,129.880038 258.28949,134.446417 259.074017,136.51117 Z M243.170674,123.89717 C243.070975,126.174 243.147296,128.645723 244.498388,130.586048 C245.371268,128.395148 246.072254,126.13241 247.033145,123.980695 C247.512043,124.164931 252.327842,128.473861 252.576402,128.729248 C252.19342,128.907985 251.849975,129.279207 251.406487,129.239679 L251.408894,129.432165 C250.846455,129.508815 251.152427,129.431477 250.448003,129.712987 L250.429438,129.912691 C247.887117,131.010547 246.761552,131.883607 244.948751,132.535309 C242.93621,130.228574 241.852242,126.798204 243.170674,123.89717 Z M231.257691,115.096449 C231.348108,114.604579 232.023654,114.692573 232.200018,115.050046 C232.302123,115.064139 232.504271,115.091637 232.606376,115.103323 L232.601563,115.303027 C233.436971,115.517855 236.368461,117.184919 241.80308,119.870438 C239.338456,123.432111 239.949025,125.541891 240.902353,127.733478 C240.34679,127.98646 230.980597,115.411988 231.257691,115.096449 Z M230.737882,118.157659 C231.117425,118.492103 233.345179,121.723113 233.54217,122.103272 C231.828725,121.230899 229.944761,120.306624 230.737882,118.157659 Z M229.786274,123.166068 C235.192702,123.566163 238.918002,129.652492 242.699683,133.893021 C234.997774,135.967741 227.255986,137.898785 219.535512,139.913354 C224.281865,133.187698 223.80778,135.280636 229.786274,123.166068 Z M219.147718,140.1409 C218.901565,140.509716 218.64166,140.86719 218.370067,141.215383 C218.121507,140.992649 217.849914,140.786071 217.727181,140.472594 C218.200579,140.370852 218.676383,140.268422 219.147718,140.1409 Z M204.764954,149.630788 L204.799677,149.429022 C205.494131,149.135825 209.780495,146.366437 210.336058,146.386373 L210.340871,146.182201 L210.547488,146.054679 L210.744823,146.14061 C219.027736,141.484175 243.325035,135.230796 243.670199,135.364849 C244.728382,135.793129 243.987517,135.595488 255.320871,146.651041 C251.81594,152.753525 247.226011,143.804315 241.444165,150.132282 C237.679329,154.315065 242.409181,154.237727 244.598774,155.203249 C241.632217,157.308218 238.270991,158.832979 234.9493,160.30687 L234.615136,160.304464 L234.624419,160.476326 C234.28063,160.609347 230.128344,162.180856 228.637674,162.699879 L228.363674,162.662757 L228.372957,162.818121 C218.003244,166.271177 218.554682,166.969625 214.721432,169.151587 L214.463934,169.160868 L214.447776,169.362634 C214.122896,169.526935 213.919372,169.642426 213.542579,169.638645 L213.528484,169.838349 C213.210479,169.989931 212.989079,170.101986 212.618474,170.09133 L212.602316,170.293096 C212.497804,170.295502 212.291187,170.304783 212.186675,170.307189 C211.311731,171.018011 200.355514,168.380957 200.008975,168.295026 C200.523627,155.372362 199.199351,151.227388 204.764954,149.630788 Z M199.657966,169.095904 C202.996159,169.926686 206.28519,170.952704 209.637134,171.732271 C209.41539,172.334132 195.786556,185.674422 195.245088,186.130888 C196.684534,180.444998 198.193424,174.775263 199.657966,169.095904 Z M189.142487,164.108462 C189.102951,163.806672 189.068228,163.507288 189.042788,163.21031 C189.043819,163.209279 197.680147,154.558078 197.680491,154.558078 C197.782596,154.045241 198.618348,154.282068 198.567123,154.734409 C198.46158,165.043393 199.597459,162.840463 189.913262,164.512339 C190.033932,166.682271 187.330718,166.799825 188.132778,174.018382 C188.913867,173.194818 190.554085,170.050427 191.988374,167.956114 L192.262374,167.851622 C192.452145,168.410174 191.068394,170.391402 188.799042,174.900035 C188.996377,175.101801 189.200587,175.303911 189.41408,175.505678 C191.252321,174.372074 191.538354,173.874361 192.705518,173.298623 L192.738178,173.094451 C193.373844,172.819127 195.850157,170.906988 197.689429,169.666487 C197.689086,169.667174 190.574713,192.605626 190.574713,192.605969 C190.475014,192.585002 190.272866,192.541005 190.173167,192.517632 L190.205827,192.348176 C189.918075,191.955986 190.006085,191.443149 189.920138,190.99287 C188.008326,170.71244 182.951875,166.163591 189.142487,164.108462 Z M172.714865,191.195324 C172.475588,189.713184 174.009575,192.285618 178.82228,194.511921 C182.605336,196.081711 185.316801,196.171767 186.897887,196.484556 C186.534502,194.054768 181.775429,191.02518 181.011186,190.50375 C183.005163,190.754326 184.590718,192.183876 185.953155,193.560148 L185.929777,193.606551 C186.301069,193.938589 186.619074,194.325966 186.992773,194.662473 C187.785895,187.914818 181.083725,185.291513 174.536604,187.001198 C175.342102,184.786925 176.479357,182.702924 177.398649,180.532992 C180.267913,181.078482 183.171557,181.482015 186.024663,182.10175 C187.240301,177.585211 183.795534,176.285932 182.449943,175.433839 C182.347838,175.426965 182.138814,175.415278 182.036709,175.408404 L182.027426,175.211106 C181.544746,175.259915 181.124292,174.97428 180.708995,174.7842 C181.495241,173.257032 184.698668,168.594754 185.05449,168.227656 C187.071845,178.036521 187.276399,177.13665 188.039611,192.805673 C187.977042,195.567499 188.750567,196.611734 184.868844,204.029308 C182.702284,207.869397 184.55462,207.48202 178.489836,208.174281 C171.897335,208.887509 167.124166,211.375043 168.109122,219.251833 C169.624888,217.534585 171.057114,215.737937 172.561535,214.01141 C172.659171,213.992848 172.8541,213.958132 172.951392,213.939571 C172.640951,214.871064 170.01612,218.087638 168.842768,219.906628 C170.119601,219.753327 171.243104,218.973759 172.494153,218.783336 L172.531282,218.586038 C175.474117,217.583738 178.557906,215.650975 180.574573,213.02767 C179.717851,217.413938 178.638696,221.763427 177.723873,226.14282 L177.577763,226.247313 C177.573294,226.419175 177.564012,226.762556 177.559198,226.932012 L177.424433,226.938886 C177.548541,227.386759 174.457189,240.677209 174.230288,241.599765 C166.359923,217.52118 164.599378,220.737066 172.714865,191.195324 Z M121.425647,197.667999 C122.809054,198.17843 124.104452,198.909532 125.501955,199.38559 C125.29465,199.800122 122.306778,200.766331 121.866728,204.113176 L121.625388,204.103896 C121.599948,201.954587 121.479278,199.805622 121.425647,197.667999 Z M128.981445,216.510974 C128.925751,216.483132 128.811957,216.427449 128.753857,216.399607 C127.579473,212.842059 125.724043,212.687039 121.829599,212.602827 C121.864322,210.502327 121.692771,208.388078 121.685551,206.30167 C122.126633,205.670248 122.614126,205.069418 123.108495,204.47993 C123.189629,204.475118 123.352241,204.468244 123.435782,204.463775 C122.980949,205.271528 122.646442,206.137026 122.258992,206.977432 C122.419197,207.193291 122.58181,207.411556 122.748891,207.63429 C124.568911,206.427473 126.572171,205.496667 128.296961,204.141362 C128.641781,203.877382 131.940439,200.837139 132.305886,203.250084 C132.171121,203.751578 130.240745,211.221398 130.214273,211.797824 L130.019345,211.807105 C129.907957,213.398893 129.241694,214.92606 128.981445,216.510974 Z M131.655781,232.864008 C130.012813,231.168072 127.379731,215.726251 133.763552,203.704832 C145.929907,210.969448 162.790703,225.118178 168.88471,238.714886 C160.448468,231.388743 156.409289,233.739475 144.896477,236.359342 C146.65874,239.551168 149.427618,241.720413 152.551974,243.632895 C152.65408,243.63977 152.855884,243.656269 152.958333,243.663143 L152.965209,243.867316 C152.965209,243.867316 155.77156,245.453948 170.142979,247.244065 C168.020424,244.279441 163.861607,241.830061 163.856794,241.824905 C163.754688,241.80875 163.550477,241.778502 163.448372,241.764409 L163.452841,241.560237 C163.398523,241.563331 159.10769,239.607538 159.07503,239.592071 L158.949547,239.38068 C160.585983,239.568698 162.10175,240.257865 163.638487,240.803356 C163.687306,240.873132 163.787004,241.009934 163.835822,241.079367 C165.194821,240.693708 170.743578,245.964035 171.087711,246.247951 C171.057458,245.691117 171.00417,245.13394 171.027204,244.581575 C172.335322,245.370079 171.163001,247.322777 174.061144,247.642785 C179.777326,264.30689 183.062575,264.195867 182.585052,272.239363 C182.120937,271.844767 181.934947,271.245999 181.528932,270.812219 C172.219809,260.643475 158.019941,252.28169 155.83688,251.546807 L155.794938,251.349509 C155.660172,251.289014 155.390985,251.168367 155.256564,251.108215 C155.156865,251.096528 154.961593,251.073499 154.861894,251.061812 L154.8643,250.859702 C154.624335,250.907136 152.68949,249.860839 152.505907,249.7041 C152.403801,249.697226 152.197184,249.685539 152.092672,249.678665 L152.080983,249.478961 L151.818672,249.493054 C151.748883,249.434964 151.612055,249.316723 151.544672,249.258634 C151.442567,249.244541 151.240419,249.214637 151.138313,249.200544 L151.147596,249.005652 C150.54287,249.107395 139.606249,243.786197 131.655781,232.864008 Z M158.845035,239.285812 L158.845035,239.448394 C158.74293,239.445988 158.538719,239.441519 158.436614,239.441519 L158.436614,239.28375 C158.538719,239.283406 158.74293,239.285812 158.845035,239.285812 Z M116.30972,244.384621 C118.065108,245.688368 117.530516,247.196974 118.614827,248.545749 C116.966701,248.002664 115.413806,247.197318 113.800403,246.561428 L113.737833,246.450061 C113.638135,246.445593 113.438393,246.433906 113.338694,246.429094 L113.327005,246.231796 C112.145402,246.094994 111.135693,245.252525 110.070291,244.744157 C110.054132,244.64207 110.021472,244.435492 110.005314,244.333406 C112.107929,244.335812 114.243547,243.758011 116.30972,244.384621 Z M97.079873,247.415583 C101.836884,245.600718 110.08026,243.559682 113.681796,247.120667 C109.564233,247.156759 107.994492,249.345596 106.557797,253.131721 C105.957541,252.90555 98.5272254,248.398291 97.079873,247.415583 Z M108.275711,254.19486 C108.266429,254.139177 108.247864,254.025404 108.238582,253.967315 C109.090491,253.570313 109.856454,252.899707 110.750306,252.6536 L110.780559,252.456302 C111.337154,252.250068 113.540155,250.879982 115.337141,249.8849 C115.754844,249.780407 115.529663,249.337346 115.5276,249.056524 C114.696661,248.982279 113.86091,248.998434 113.039254,248.861632 C117.46829,247.36918 117.924154,250.11657 120.887617,253.071569 C121.19909,253.418043 126.051674,258.879825 126.307797,259.356571 C124.527313,259.590991 122.718982,259.382006 120.931622,259.553868 C123.239135,260.187353 125.762203,260.264003 127.928075,261.285208 C128.032587,261.294489 128.241267,261.315456 128.345779,261.327143 L128.345779,261.524441 C129.672461,261.772266 131.773357,263.795428 132.772408,264.73414 C124.353012,261.863009 116.051878,258.537131 108.275711,254.19486 Z M131.792609,260.653787 C133.136481,260.54242 134.206697,259.595459 135.32573,258.931727 C131.303053,257.426901 131.885776,257.997484 131.035929,258.4512 C129.010667,255.182381 130.417796,250.490542 130.11423,249.622638 C128.431726,253.099411 129.841606,256.296735 130.169924,260.138544 C127.200617,258.748522 120.567549,252.060332 118.147961,244.078019 C135.950052,245.97744 130.065756,245.638184 131.862055,246.268918 C138.964395,246.752195 148.503513,250.828079 154.608521,254.180768 L154.664215,254.28526 C154.76632,254.299353 154.970531,254.322382 155.072637,254.336475 L155.07745,254.533773 C155.357638,254.477746 158.546282,256.479597 158.963299,256.648022 L158.991145,256.847726 C163.836166,258.206125 180.000445,274.159064 180.609296,274.732397 C180.562884,274.813515 180.467655,274.978503 180.421243,275.062028 C180.421243,275.062028 163.581762,270.178735 152.041104,269.178841 C151.992286,269.146187 151.894993,269.07916 151.846175,269.046507 C136.32375,267.157741 140.095805,263.830488 136.042875,262.636389 C134.561831,262.621953 134.065743,264.803228 131.792609,260.653787 Z" fill="url(#linearGradient-3)"></path>
                        <path d="M77.2341332,4 C76.1291374,6.12683507 79.4154237,4.23631501 77.2341332,4" fill="#000000"></path>
                    </g>
                </g>
            </g>
        </g>
    </g>
</svg>