<?xml version="1.0" encoding="UTF-8"?>
<svg width="18px" height="14px" viewBox="0 0 18 14" version="1.1" xmlns="http://www.w3.org/2000/svg" xmlns:xlink="http://www.w3.org/1999/xlink">
    <!-- Generator: Sketch 48.2 (47327) - http://www.bohemiancoding.com/sketch -->
    <title>mail_outline - material</title>
    <desc>Created with Sketch.</desc>
    <defs></defs>
    <g id="Artboard" stroke="none" stroke-width="1" fill="none" fill-rule="evenodd" transform="translate(-278.000000, -166.000000)">
        <path d="M287,172.18 L293.68,168 L280.32,168 L287,172.18 Z M293.68,178 L293.68,169.68 L287,173.82 L280.32,169.68 L280.32,178 L293.68,178 Z M293.68,166.32 C294.133336,166.32 294.519998,166.486665 294.84,166.82 C295.160002,167.153335 295.32,167.546664 295.32,168 L295.32,178 C295.32,178.453336 295.160002,178.846665 294.84,179.18 C294.519998,179.513335 294.133336,179.68 293.68,179.68 L280.32,179.68 C279.866664,179.68 279.480002,179.513335 279.16,179.18 C278.839998,178.846665 278.68,178.453336 278.68,178 L278.68,168 C278.68,167.546664 278.839998,167.153335 279.16,166.82 C279.480002,166.486665 279.866664,166.32 280.32,166.32 L293.68,166.32 Z" id="mail_outline---material" fill="#000000"></path>
    </g>
</svg>