<?xml version="1.0" encoding="UTF-8"?>
<svg width="18px" height="14px" viewBox="0 0 18 14" version="1.1" xmlns="http://www.w3.org/2000/svg" xmlns:xlink="http://www.w3.org/1999/xlink">
    <!-- Generator: Sketch 48.2 (47327) - http://www.bohemiancoding.com/sketch -->
    <title>mail_outline - material copy</title>
    <desc>Created with Sketch.</desc>
    <defs></defs>
    <g id="Artboard" stroke="none" stroke-width="1" fill="none" fill-rule="evenodd" transform="translate(-210.000000, -166.000000)">
        <path d="M219,172.18 L225.68,168 L212.32,168 L219,172.18 Z M225.68,178 L225.68,169.68 L219,173.82 L212.32,169.68 L212.32,178 L225.68,178 Z M225.68,166.32 C226.133336,166.32 226.519998,166.486665 226.84,166.82 C227.160002,167.153335 227.32,167.546664 227.32,168 L227.32,178 C227.32,178.453336 227.160002,178.846665 226.84,179.18 C226.519998,179.513335 226.133336,179.68 225.68,179.68 L212.32,179.68 C211.866664,179.68 211.480002,179.513335 211.16,179.18 C210.839998,178.846665 210.68,178.453336 210.68,178 L210.68,168 C210.68,167.546664 210.839998,167.153335 211.16,166.82 C211.480002,166.486665 211.866664,166.32 212.32,166.32 L225.68,166.32 Z" id="mail_outline---material-copy" fill="#fff"></path>
    </g>
</svg>
