<?xml version="1.0" encoding="UTF-8"?>
<svg width="20px" height="20px" viewBox="0 0 20 20" version="1.1" xmlns="http://www.w3.org/2000/svg" xmlns:xlink="http://www.w3.org/1999/xlink">
    <!-- Generator: Sketch 48.2 (47327) - http://www.bohemiancoding.com/sketch -->
    <title>Phone - simple-line-icons</title>
    <desc>Created with Sketch.</desc>
    <defs></defs>
    <g id="Artboard" stroke="none" stroke-width="1" fill="none" fill-rule="evenodd" transform="translate(-237.000000, -264.000000)">
        <path d="M242.117188,264.972656 C242.481773,265.480471 242.882159,266.059893 243.318359,266.710938 C243.754559,267.361982 244.22656,268.084631 244.734375,268.878906 C244.864584,269.087241 244.919922,269.321613 244.900391,269.582031 C244.880859,269.842449 244.786459,270.122394 244.617188,270.421875 C244.552083,270.552084 244.441407,270.760415 244.285156,271.046875 C244.128905,271.333335 243.927085,271.704425 243.679688,272.160156 C243.953126,272.550783 244.30143,272.986977 244.724609,273.46875 C245.147789,273.950523 245.63932,274.471351 246.199219,275.03125 C246.772138,275.60417 247.296222,276.102211 247.771484,276.525391 C248.246747,276.94857 248.673175,277.296874 249.050781,277.570312 C249.493492,277.309895 249.861327,277.098308 250.154297,276.935547 C250.447267,276.772786 250.658854,276.658854 250.789062,276.59375 C250.945313,276.502604 251.104817,276.434245 251.267578,276.388672 C251.430339,276.343099 251.583333,276.320312 251.726562,276.320312 C251.843751,276.320312 251.951171,276.333333 252.048828,276.359375 C252.146485,276.385417 252.240885,276.424479 252.332031,276.476562 C252.917972,276.828127 253.536455,277.222003 254.1875,277.658203 C254.838545,278.094403 255.535153,278.572914 256.277344,279.09375 C256.407553,279.184896 256.511718,279.302083 256.589844,279.445312 C256.667969,279.588542 256.720052,279.744791 256.746094,279.914062 C256.759115,280.096355 256.739584,280.2819 256.6875,280.470703 C256.635416,280.659506 256.544271,280.851562 256.414062,281.046875 C256.361979,281.138021 256.283855,281.248697 256.179688,281.378906 C256.07552,281.509115 255.951824,281.658853 255.808594,281.828125 C255.678385,281.997397 255.509116,282.189452 255.300781,282.404297 C255.092447,282.619142 254.845054,282.85677 254.558594,283.117188 C254.285155,283.377605 254.034506,283.572916 253.806641,283.703125 C253.578775,283.833334 253.380209,283.898438 253.210938,283.898438 L253.171875,283.898438 C252.494788,283.872396 251.78516,283.725913 251.042969,283.458984 C250.300778,283.192056 249.519535,282.8112 248.699219,282.316406 C247.878902,281.821612 247.019536,281.203129 246.121094,280.460938 C245.222652,279.718746 244.285161,278.86589 243.308594,277.902344 C242.332026,276.925776 241.475915,275.988286 240.740234,275.089844 C240.004554,274.191402 239.38607,273.332035 238.884766,272.511719 C238.383461,271.691402 238.002605,270.906905 237.742188,270.158203 C237.48177,269.409501 237.338542,268.703128 237.3125,268.039062 C237.3125,267.85677 237.377604,267.651694 237.507812,267.423828 C237.638021,267.195962 237.833332,266.938804 238.09375,266.652344 C238.354168,266.365884 238.588541,266.121746 238.796875,265.919922 C239.005209,265.718098 239.19401,265.552084 239.363281,265.421875 C239.519532,265.304687 239.66927,265.194011 239.8125,265.089844 C239.95573,264.985677 240.079427,264.894532 240.183594,264.816406 C240.326824,264.712239 240.476562,264.63737 240.632812,264.591797 C240.789063,264.546224 240.958332,264.523438 241.140625,264.523438 C241.348959,264.523438 241.534504,264.559244 241.697266,264.630859 C241.860027,264.702474 241.999999,264.816405 242.117188,264.972656 Z M240.867188,265.773438 C240.60677,265.95573 240.352866,266.154296 240.105469,266.369141 C239.858072,266.583985 239.617189,266.808593 239.382812,267.042969 C239.148436,267.277345 238.962891,267.479166 238.826172,267.648438 C238.689452,267.817709 238.601563,267.960937 238.5625,268.078125 C238.588542,268.664065 238.725259,269.289059 238.972656,269.953125 C239.220053,270.617191 239.578123,271.323564 240.046875,272.072266 C240.515627,272.820967 241.095049,273.60872 241.785156,274.435547 C242.475264,275.262374 243.276037,276.131506 244.1875,277.042969 C245.098963,277.954432 245.968095,278.755205 246.794922,279.445312 C247.621749,280.13542 248.409501,280.714841 249.158203,281.183594 C249.906905,281.652346 250.616533,282.010415 251.287109,282.257812 C251.957686,282.50521 252.585935,282.648437 253.171875,282.6875 C253.263021,282.648437 253.393228,282.557292 253.5625,282.414062 C253.731772,282.270833 253.933593,282.082032 254.167969,281.847656 C254.402345,281.61328 254.623697,281.369142 254.832031,281.115234 C255.040366,280.861327 255.242187,280.604168 255.4375,280.34375 C255.476563,280.291666 255.502604,280.242839 255.515625,280.197266 C255.528646,280.151692 255.528646,280.109375 255.515625,280.070312 C254.760413,279.536456 254.06706,279.0612 253.435547,278.644531 C252.804033,278.227863 252.234378,277.856772 251.726562,277.53125 C251.674479,277.53125 251.615886,277.541016 251.550781,277.560547 C251.485677,277.580078 251.414063,277.609375 251.335938,277.648438 C251.23177,277.713542 251.03646,277.824218 250.75,277.980469 C250.46354,278.13672 250.09245,278.33854 249.636719,278.585938 L248.992188,278.976562 L248.347656,278.546875 C247.930988,278.260415 247.472008,277.89258 246.970703,277.443359 C246.469399,276.994138 245.919274,276.470055 245.320312,275.871094 C244.734372,275.272132 244.220054,274.722008 243.777344,274.220703 C243.334633,273.719399 242.970054,273.260419 242.683594,272.84375 L242.214844,272.238281 L242.605469,271.554688 C242.852866,271.098956 243.054687,270.731121 243.210938,270.451172 C243.367188,270.171223 243.477864,269.972657 243.542969,269.855469 C243.582031,269.777343 243.611328,269.705729 243.630859,269.640625 C243.650391,269.575521 243.660156,269.516927 243.660156,269.464844 C243.204425,268.748694 242.771486,268.078128 242.361328,267.453125 C241.95117,266.828122 241.557294,266.24219 241.179688,265.695312 L241.140625,265.695312 C241.088541,265.695312 241.039714,265.701823 240.994141,265.714844 C240.948567,265.727865 240.90625,265.747396 240.867188,265.773438 Z" id="Phone---simple-line-icons" fill="#000000"></path>
    </g>
</svg>